<svg width="24" height="25" viewBox="0 0 24 25" fill="none" xmlns="http://www.w3.org/2000/svg">
<path d="M3.99303 18.1635C4.05361 17.9634 3.92084 17.6853 3.79413 17.4848C3.75486 17.4249 3.71205 17.3669 3.66591 17.3112C2.5792 15.8201 1.99998 14.0733 2.00005 12.2872C1.98188 7.16036 6.68062 3 12.4909 3C17.5582 3 21.7885 6.17611 22.7764 10.3922C22.9246 11.0173 22.9996 11.6547 23 12.294C23 17.4281 18.4825 21.6538 12.6722 21.6538C11.7479 21.6538 10.5015 21.4437 9.82152 21.2715C9.14155 21.0993 8.46258 20.871 8.28742 20.8098C8.10809 20.7475 7.91766 20.7154 7.72557 20.7152C7.5161 20.7145 7.30865 20.7523 7.11576 20.8262L3.69115 21.9443C3.61632 21.9735 3.537 21.9923 3.45591 22C3.39178 21.9998 3.32832 21.9881 3.26921 21.9656C3.21009 21.9431 3.1565 21.9102 3.11152 21.8689C3.06655 21.8275 3.03109 21.7785 3.00719 21.7246C2.9833 21.6708 2.97144 21.6132 2.97231 21.5551C2.97652 21.5042 2.98667 21.4539 3.0026 21.4049L3.99303 18.1635Z" stroke="white" stroke-miterlimit="10" stroke-linecap="round"/>
<path d="M8 14C8.55228 14 9 13.5523 9 13C9 12.4477 8.55228 12 8 12C7.44772 12 7 12.4477 7 13C7 13.5523 7.44772 14 8 14Z" fill="white"/>
<path d="M12.5 14C13.0523 14 13.5 13.5523 13.5 13C13.5 12.4477 13.0523 12 12.5 12C11.9477 12 11.5 12.4477 11.5 13C11.5 13.5523 11.9477 14 12.5 14Z" fill="white"/>
<path d="M17 14C17.5523 14 18 13.5523 18 13C18 12.4477 17.5523 12 17 12C16.4477 12 16 12.4477 16 13C16 13.5523 16.4477 14 17 14Z" fill="white"/>
</svg>
