<?xml version="1.0" encoding="utf-8"?>
<!-- Generator: Adobe Illustrator 26.4.1, SVG Export Plug-In . SVG Version: 6.00 Build 0)  -->
<svg version="1.1" id="レイヤー_1" xmlns="http://www.w3.org/2000/svg" xmlns:xlink="http://www.w3.org/1999/xlink" x="0px"
	 y="0px" viewBox="0 0 255.7 260" style="enable-background:new 0 0 255.7 260;" xml:space="preserve">
<style type="text/css">
	.st0{fill:url(#SVGID_1_);}
	.st1{fill:url(#SVGID_00000142871922139515994530000010038179538573100721_);filter:url(#Adobe_OpacityMaskFilter);}
	.st2{fill:url(#SVGID_00000094615540908231664890000005046953985801390977_);}
	.st3{mask:url(#mask0_129_3564_00000119816232480357185290000003497687799868800661_);}
	.st4{fill:url(#SVGID_00000121277515528081735810000001744176708734075315_);}
</style>
<linearGradient id="SVGID_1_" gradientUnits="userSpaceOnUse" x1="127.8655" y1="259.89" x2="127.8655" y2="-0.11" gradientTransform="matrix(1 0 0 -1 0 259.89)">
	<stop  offset="0" style="stop-color:#FDCA46"/>
	<stop  offset="1" style="stop-color:#F7A325"/>
</linearGradient>
<path class="st0" d="M255.7,130c0,71.8-57.2,130-127.9,130C57.2,260,0,201.8,0,130S57.2,0,127.9,0C198.5,0,255.7,58.2,255.7,130z
	 M17.2,130c0,62.2,49.6,112.6,110.7,112.6c61.1,0,110.7-50.4,110.7-112.6c0-62.2-49.6-112.6-110.7-112.6
	C66.7,17.4,17.2,67.8,17.2,130z"/>
<defs>
	<filter id="Adobe_OpacityMaskFilter" filterUnits="userSpaceOnUse" x="152.9" y="95" width="88.4" height="88.2">
		<feColorMatrix  type="matrix" values="1 0 0 0 0  0 1 0 0 0  0 0 1 0 0  0 0 0 1 0"/>
	</filter>
</defs>
<mask maskUnits="userSpaceOnUse" x="152.9" y="95" width="88.4" height="88.2" id="mask0_129_3564_00000119816232480357185290000003497687799868800661_">
	
		<linearGradient id="SVGID_00000042735883037499366420000007866604938141397385_" gradientUnits="userSpaceOnUse" x1="193.805" y1="115.9667" x2="193.805" y2="194.8903" gradientTransform="matrix(1 0 0 -1 0 259.89)">
		<stop  offset="0" style="stop-color:#FDCA46"/>
		<stop  offset="1" style="stop-color:#F7A325"/>
	</linearGradient>
	<path style="fill:url(#SVGID_00000042735883037499366420000007866604938141397385_);filter:url(#Adobe_OpacityMaskFilter);" d="
		M152.4,140.5c-0.1-3.1,0.1-7.3,1.2-11.9c5-21,22.8-30.5,22.8-30.5c2.5-1.3,19.2-9.8,38-2c19,8,24.6,26,25.2,28.4
		c7.6-5.3,15.3-10.6,22.9-15.8c-2-4.9-5.4-12.1-11.5-19.3c-0.7-0.9-8.8-10.4-20.4-16.5c-19.1-10.3-47.8-11.5-71.2,3
		c-25.1,15.6-31.3,41.5-32.5,46.3c-1.6,6.5-2,12.5-2,17.3c2.6,1.8,7.4,4.4,14,4.5C145.1,144,149.7,142,152.4,140.5z"/>
	
		<linearGradient id="SVGID_00000030452738025809685000000016590593187721955205_" gradientUnits="userSpaceOnUse" x1="197" y1="48.8903" x2="197" y2="144.924" gradientTransform="matrix(1 0 0 -1 0 259.89)">
		<stop  offset="0" style="stop-color:#FDCA46"/>
		<stop  offset="1" style="stop-color:#F7A325"/>
	</linearGradient>
	<path style="fill:url(#SVGID_00000030452738025809685000000016590593187721955205_);" d="M265.1,115c-7.9,5.2-15.8,10.5-23.7,15.7
		c-0.3,0.1-0.6,0.2-0.8,0.4c-5,3.2-9.9,6.5-14.9,9.7c-4.5-3.5-9-7.1-13.4-10.6c-1.4-1.3-3.6-1.4-5.1-0.2l-17.2,13.8
		c-1.7,1.4-1.9,3.8-0.6,5.5c1.4,1.7,3.8,1.9,5.5,0.6l14.6-11.7c4.3,3.8,8.7,7.6,13,11.4c0.2,0.2,1.4,1.4,3.2,1.3
		c1.5-0.1,2.4-0.9,2.6-1.2c4.4-3.1,8.8-6.3,13.2-9.4c-0.1,3.1-0.5,6.2-1.3,9.3c-2.8,11.5-10,21.3-20.2,27.4
		c-10.2,6.2-22.1,8-33.7,5.2c-11.6-2.8-21.3-10-27.5-20.1c-3.1-5.1-5.1-10.6-6-16.3c-0.1-0.8-0.4-2.8-0.5-5.5
		c-2.7,1.5-7.3,3.6-13.4,3.5c-6.6-0.1-11.4-2.7-14-4.5c0,5.3,0.5,9.1,0.8,10.7c1.4,9.2,4.7,18.1,9.6,26.3
		c10,16.4,25.7,27.9,44.4,32.5c5.6,1.4,11.2,2.1,16.8,2.1c13.2,0.1,26.1-3.5,37.7-10.4c16.4-9.9,28-25.7,32.6-44.3
		c1.8-7.2,2-13,2.1-16.8c0.2-5.3,0.4-10.7-1.4-17.4C266.7,119,265.8,116.6,265.1,115z"/>
</mask>
<g class="st3">
	
		<linearGradient id="SVGID_00000103965100239453167080000005406807529130590387_" gradientUnits="userSpaceOnUse" x1="197.122" y1="164.9323" x2="197.122" y2="76.7217" gradientTransform="matrix(1 0 0 -1 0 259.89)">
		<stop  offset="0" style="stop-color:#FDCA46"/>
		<stop  offset="1" style="stop-color:#F7A325"/>
	</linearGradient>
	
		<ellipse style="fill:url(#SVGID_00000103965100239453167080000005406807529130590387_);" cx="197.1" cy="139.1" rx="44.2" ry="44.1"/>
</g>
</svg>
