<?xml version="1.0" encoding="utf-8"?>
<!-- Generator: Adobe Illustrator 26.4.1, SVG Export Plug-In . SVG Version: 6.00 Build 0)  -->
<svg version="1.1"
	 id="svg2" xmlns:rdf="http://www.w3.org/1999/02/22-rdf-syntax-ns#" xmlns:dc="http://purl.org/dc/elements/1.1/" xmlns:cc="http://creativecommons.org/ns#" xmlns:svg="http://www.w3.org/2000/svg"
	 xmlns="http://www.w3.org/2000/svg" xmlns:xlink="http://www.w3.org/1999/xlink" x="0px" y="0px" viewBox="0 0 510.4 130.1"
	 style="enable-background:new 0 0 510.4 130.1;" xml:space="preserve">
<style type="text/css">
	.st0{fill:#C42758;}
	.st1{fill:#EA347D;}
	.st2{fill:#D1196D;}
	.st3{fill:#68DEA3;}
	.st4{fill:#55BC85;}
	.st5{fill:#6E32E0;}
	.st6{fill:#9C65F5;}
	.st7{fill:#814BEA;}
	.st8{fill:#F1B940;}
	.st9{fill:#E89038;}
</style>
<g id="g10" transform="matrix(1.3333333,0,0,-1.3333333,0,793.70133)">
	<g id="g12">
		<g>
			<g id="g14">
				<g id="g20" transform="translate(487.5073,425.3369)">
					<path id="path22" class="st0" d="M-228.3,97.6c-6.7-4.9-15.2-6.8-23.3-5.1c-13.4,2.7-22.9,14.1-23.8,27.1
						c-1.7-1-4.9-2.5-9.1-2.4c-4.3,0.1-7.4,1.7-9.2,2.9c0.7-21.8,16.3-41.1,38.6-45.5c3-0.6,6-0.9,9-0.9c10.2-0.1,20.3,3.1,28.7,9.2
						c4.1,3,5,8.7,2,12.8C-218.5,99.7-224.2,100.6-228.3,97.6"/>
				</g>
				<g id="g24" transform="translate(440.3571,447.3128)">
					<path id="path26" class="st1" d="M-228.3,97.6c-0.2,2.6-0.1,5.2,0.5,7.8c3.2,16.1,18.9,26.5,35,23.3c4.8-1,9.1-3,12.9-6
						c3.9-3.2,9.7-2.6,12.8,1.3c3.2,3.9,2.6,9.7-1.3,12.8c-6,4.9-13.2,8.2-20.8,9.8c-25.9,5.2-51.3-11.7-56.4-37.7
						c-0.7-3.7-1-7.3-0.9-10.9c1.8-1.2,4.9-2.8,9.2-2.9C-233.2,95.1-230,96.6-228.3,97.6"/>
				</g>
				<g id="g28" transform="translate(501.4478,468.9988)">
					<path id="path30" class="st1" d="M-228.3,97.6c-0.1-0.2-0.3-0.4-0.4-0.7c-0.1-0.2-0.2-0.5-0.2-0.7c-0.1-0.2-0.1-0.5-0.1-0.8
						c0-1,0.4-2.1,1.1-2.8c0.7-0.7,1.7-1.2,2.8-1.2c1,0,2,0.4,2.8,1.1c0.7,0.7,1.2,1.7,1.2,2.8c0,0.2,0,0.5-0.1,0.8
						c0,0.2-0.1,0.5-0.2,0.7c-0.1,0.2-0.2,0.5-0.4,0.7c-0.1,0.2-0.3,0.4-0.5,0.6c-1.5,1.5-4.1,1.5-5.5,0
						C-228,98.1-228.1,97.9-228.3,97.6"/>
				</g>
				<g id="g32" transform="translate(508.8279,445.367)">
					<path id="path34" class="st2" d="M-228.3,97.6c-2.1,0.4-4.2-0.9-4.6-3h0c-0.4-2.1,0.9-4.2,3.1-4.6c0.2-0.1,0.5-0.1,0.8-0.1
						c1.8,0,3.5,1.3,3.9,3.1C-224.8,95.1-226.2,97.2-228.3,97.6"/>
				</g>
				<g id="g36" transform="translate(507.9909,458.3304)">
					<path id="path38" class="st1" d="M-228.3,97.6c-2.1-0.3-3.6-2.2-3.4-4.4c0.3-1.9,1.9-3.4,3.8-3.4c0.2,0,0.4,0,0.5,0
						c2.1,0.3,3.7,2.3,3.4,4.4C-224.2,96.4-226.1,97.9-228.3,97.6"/>
				</g>
				<g id="g40" transform="translate(507.0053,430.9333)">
					<path id="path42" class="st0" d="M-228.3,97.6c-0.1,0.2-0.2,0.5-0.4,0.7c-0.1,0.2-0.3,0.4-0.5,0.6c-0.2,0.2-0.4,0.3-0.6,0.5
						c-0.2,0.1-0.4,0.3-0.7,0.4c-0.2,0.1-0.5,0.2-0.7,0.2c-1.3,0.3-2.6-0.1-3.5-1c-0.2-0.2-0.4-0.4-0.5-0.6
						c-0.1-0.2-0.3-0.4-0.4-0.7c-0.1-0.2-0.2-0.5-0.2-0.7c-0.1-0.3-0.1-0.5-0.1-0.8c0-0.2,0-0.5,0.1-0.8c0.1-0.2,0.1-0.5,0.2-0.7
						c0.1-0.2,0.2-0.5,0.3-0.7c0.1-0.2,0.3-0.4,0.5-0.6c0.7-0.7,1.7-1.2,2.8-1.2c0.2,0,0.5,0,0.8,0.1c0.3,0.1,0.5,0.1,0.7,0.2
						c0.2,0.1,0.5,0.2,0.7,0.4c0.2,0.1,0.4,0.3,0.6,0.5c0.2,0.2,0.3,0.4,0.5,0.6c0.1,0.2,0.3,0.4,0.4,0.7c0.1,0.2,0.2,0.5,0.2,0.7
						c0.1,0.3,0.1,0.5,0.1,0.8c0,0.3,0,0.5-0.1,0.8C-228.1,97.2-228.2,97.4-228.3,97.6"/>
				</g>
				<g id="g44" transform="translate(533.5183,447.061)">
					<path id="path46" class="st3" d="M-228.3,97.6c0,0.6-0.1,1.2-0.1,1.8c0.1,16.4,13.5,29.6,29.9,29.5
						c16.4-0.1,29.6-13.5,29.5-29.9c0-0.9-0.1-1.7-0.1-2.5c1.8,1.2,5.1,3,9.7,3c3.8,0.1,6.8-1.1,8.7-2c0,0.5,0,0.9,0,1.4
						c0.2,26.5-21.2,48.1-47.7,48.3c-26.5,0.2-48.1-21.2-48.3-47.7c0-0.3,0-0.6,0-0.9c1.7-1.2,5-3.1,9.7-3.2
						C-233.1,95.4-230.1,96.6-228.3,97.6"/>
				</g>
				<g id="g48" transform="translate(602.416,449.0127)">
					<path id="path50" class="st4" d="M-228.3,97.6c-4.6-0.1-7.9-1.8-9.7-3c-1.4-15.2-14.2-27.1-29.8-27
						c-15.8,0.1-28.6,12.5-29.4,28.1c-1.8-1-4.8-2.2-8.7-2.2c-4.6,0.1-8,2-9.7,3.2c0.3-26,21.5-47.2,47.6-47.4
						c26-0.2,47.4,20.5,48.3,46.3C-221.5,96.6-224.5,97.7-228.3,97.6"/>
				</g>
				<g id="g52" transform="translate(293.7998,425.6255)">
					<path id="path54" class="st5" d="M-228.3,97.6c-6.7-4.9-15.2-6.8-23.3-5.1c-7.8,1.6-14.5,6-18.9,12.6
						c-2.9,4.3-4.5,9.1-4.9,14.1c-1.8-1-4.9-2.4-9-2.3c-4.4,0.1-7.6,1.8-9.4,3c0.3-8.8,3-17.4,8.1-24.9c7.1-10.7,18-17.9,30.5-20.4
						c3-0.6,6-0.9,9-0.9c10.2-0.1,20.3,3.1,28.7,9.2c4.1,3,5,8.7,2,12.8C-218.5,99.7-224.2,100.6-228.3,97.6"/>
				</g>
				<g id="g56" transform="translate(246.6525,447.2316)">
					<path id="path58" class="st6" d="M-228.3,97.6c-0.2,2.7-0.1,5.5,0.5,8.2c3.2,16.1,18.9,26.5,35,23.3c4.8-1,9.1-3,12.9-6
						c3.9-3.2,9.7-2.6,12.8,1.3c3.2,3.9,2.6,9.7-1.3,12.8c-6,4.9-13.2,8.2-20.8,9.8c-12.6,2.5-25.4,0-36-7.2
						c-10.7-7.1-17.9-18-20.4-30.5c-0.7-3.7-1-7.4-0.9-11.1c1.8-1.2,5-2.9,9.4-3C-233.1,95.2-230,96.6-228.3,97.6"/>
				</g>
				<g id="g60" transform="translate(308.8274,470.3605)">
					<path id="path62" class="st6" d="M-228.3,97.6c-0.2-0.1-0.4-0.3-0.6-0.5c-0.2-0.2-0.4-0.4-0.5-0.6c-0.1-0.2-0.3-0.4-0.4-0.7
						c-0.1-0.2-0.2-0.5-0.2-0.7c-0.1-0.2-0.1-0.5-0.1-0.8c0-0.3,0-0.5,0.1-0.8c0-0.2,0.1-0.5,0.2-0.7c0.1-0.2,0.2-0.5,0.3-0.7
						c0.1-0.2,0.3-0.4,0.5-0.6c0.2-0.2,0.4-0.3,0.6-0.5c0.2-0.1,0.4-0.3,0.7-0.4c0.2-0.1,0.5-0.2,0.7-0.2c0.3-0.1,0.5-0.1,0.8-0.1
						c1,0,2,0.4,2.8,1.1c0.2,0.2,0.3,0.4,0.5,0.6c0.1,0.2,0.3,0.4,0.4,0.7c0.1,0.2,0.2,0.5,0.2,0.7c0.1,0.2,0.1,0.5,0.1,0.8
						c0,1-0.4,2-1.1,2.8c-0.9,0.9-2.2,1.3-3.5,1.1c-0.2-0.1-0.5-0.1-0.7-0.2C-227.8,97.9-228.1,97.8-228.3,97.6"/>
				</g>
				<g id="g64" transform="translate(315.1168,445.6542)">
					<path id="path66" class="st7" d="M-228.3,97.6c-2.1,0.4-4.2-0.9-4.6-3c-0.4-2.1,0.9-4.2,3-4.6c0.3-0.1,0.5-0.1,0.8-0.1
						c1.8,0,3.5,1.3,3.8,3.1C-224.8,95.1-226.2,97.2-228.3,97.6"/>
				</g>
				<g id="g68" transform="translate(314.2798,458.6178)">
					<path id="path70" class="st6" d="M-228.3,97.6c-2.1-0.3-3.6-2.2-3.4-4.4c0.3-2,1.9-3.4,3.9-3.4c0.2,0,0.4,0,0.5,0
						c2.1,0.3,3.7,2.3,3.4,4.4C-224.2,96.4-226.1,97.9-228.3,97.6"/>
				</g>
				<g id="g72" transform="translate(313.2956,431.2207)">
					<path id="path74" class="st5" d="M-228.3,97.6c-0.1,0.2-0.2,0.5-0.4,0.7c-0.1,0.2-0.3,0.4-0.5,0.6c-0.2,0.2-0.4,0.4-0.6,0.5
						c-0.2,0.1-0.4,0.3-0.7,0.4c-0.2,0.1-0.5,0.2-0.7,0.2c-1.3,0.3-2.6-0.1-3.5-1c-0.2-0.2-0.4-0.4-0.5-0.6
						c-0.1-0.2-0.3-0.4-0.4-0.7c-0.1-0.2-0.2-0.5-0.2-0.7c-0.1-0.3-0.1-0.5-0.1-0.8c0-0.2,0-0.5,0.1-0.8c0.1-0.2,0.1-0.5,0.2-0.7
						c0.1-0.2,0.2-0.5,0.3-0.7c0.1-0.2,0.3-0.4,0.5-0.6c0.7-0.7,1.7-1.2,2.8-1.2c0.2,0,0.5,0,0.8,0.1c0.3,0.1,0.5,0.1,0.7,0.2
						c0.2,0.1,0.5,0.2,0.7,0.4c0.2,0.1,0.4,0.3,0.6,0.5c0.2,0.2,0.3,0.4,0.5,0.6c0.1,0.2,0.3,0.4,0.4,0.7c0.1,0.2,0.2,0.5,0.2,0.7
						c0.1,0.3,0.1,0.5,0.1,0.8c0,0.3,0,0.5-0.1,0.8C-228.1,97.2-228.2,97.4-228.3,97.6"/>
				</g>
				<g id="g76" transform="translate(340.5302,447.2057)">
					<path id="path78" class="st8" d="M-228.3,97.6c0,2.1,0.1,4.9,0.8,7.9c3.4,14.1,15.2,20.4,15.2,20.4c1.7,0.9,12.8,6.6,25.3,1.3
						c12.7-5.3,16.4-17.4,16.8-19c5.1,3.5,10.2,7.1,15.3,10.6c-1.3,3.3-3.6,8.1-7.7,12.9c-0.5,0.6-5.9,6.9-13.6,11.1
						c-12.7,6.9-31.9,7.7-47.5-2c-16.7-10.4-20.9-27.7-21.7-30.9c-1-4.4-1.4-8.4-1.4-11.6c1.8-1.2,5-2.9,9.4-3
						C-233.1,95.3-230,96.6-228.3,97.6"/>
				</g>
				<g id="g80" transform="translate(415.6794,464.2356)">
					<path id="path82" class="st9" d="M-228.3,97.6c-5.3-3.5-10.5-7-15.8-10.5c-0.2-0.1-0.4-0.2-0.6-0.3c-3.3-2.2-6.6-4.3-9.9-6.5
						c-3,2.4-6,4.7-9,7.1c-1,0.9-2.4,0.9-3.4,0.1l-11.5-9.2c-1.1-0.9-1.3-2.5-0.4-3.7c0.9-1.1,2.6-1.3,3.7-0.4l9.7,7.8
						c2.9-2.5,5.8-5.1,8.7-7.6c0.1-0.1,0.9-0.9,2.2-0.9c1,0.1,1.6,0.6,1.8,0.8c2.9,2.1,5.9,4.2,8.8,6.3c-0.1-2.1-0.3-4.2-0.9-6.2
						c-1.9-7.7-6.7-14.2-13.5-18.3c-6.8-4.1-14.8-5.3-22.5-3.5c-7.7,1.9-14.2,6.7-18.3,13.5c-2.1,3.4-3.4,7.1-4,10.9
						c-0.1,0.5-0.3,1.9-0.3,3.7c-1.8-1-4.9-2.4-8.9-2.3c-4.4,0.1-7.6,1.8-9.4,3c0-3.5,0.4-6.1,0.5-7.1c0.9-6.1,3.1-12.1,6.4-17.6
						c6.6-11,17.2-18.7,29.6-21.7c3.7-0.9,7.5-1.4,11.2-1.4c8.8-0.1,17.4,2.3,25.1,7c11,6.6,18.7,17.2,21.7,29.6
						c1.2,4.8,1.3,8.7,1.4,11.2c0.1,3.6,0.2,7.2-0.9,11.7C-227.2,95-227.8,96.6-228.3,97.6"/>
				</g>
			</g>
		</g>
	</g>
</g>
</svg>
