<svg width="52" height="52" viewBox="0 0 52 52" fill="none" xmlns="http://www.w3.org/2000/svg">
<path fill-rule="evenodd" clip-rule="evenodd" d="M25.9996 15.5225C26.3377 15.5225 26.662 15.6553 26.901 15.8918C27.1401 16.1283 27.2744 16.4491 27.2744 16.7835V31.3941L32.746 25.9791C32.8645 25.8619 33.0052 25.7689 33.1601 25.7054C33.3149 25.642 33.4809 25.6093 33.6485 25.6093C33.8162 25.6093 33.9821 25.642 34.137 25.7054C34.2919 25.7689 34.4326 25.8619 34.5511 25.9791C34.6696 26.0964 34.7637 26.2356 34.8278 26.3887C34.892 26.5419 34.925 26.7061 34.925 26.8719C34.925 27.0378 34.892 27.2019 34.8278 27.3551C34.7637 27.5083 34.6696 27.6475 34.5511 27.7648L26.9022 35.3311C26.7837 35.4485 26.6431 35.5417 26.4882 35.6053C26.3333 35.6688 26.1673 35.7016 25.9996 35.7016C25.8319 35.7016 25.6659 35.6688 25.511 35.6053C25.3561 35.5417 25.2154 35.4485 25.097 35.3311L17.4481 27.7648C17.3295 27.6475 17.2355 27.5083 17.1714 27.3551C17.1072 27.2019 17.0742 27.0378 17.0742 26.8719C17.0742 26.7061 17.1072 26.5419 17.1714 26.3887C17.2355 26.2356 17.3295 26.0964 17.4481 25.9791C17.6875 25.7423 18.0121 25.6093 18.3507 25.6093C18.5183 25.6093 18.6843 25.642 18.8391 25.7054C18.994 25.7689 19.1347 25.8619 19.2532 25.9791L24.7248 31.3941V16.7835C24.7248 16.4491 24.8591 16.1283 25.0982 15.8918C25.3372 15.6553 25.6615 15.5225 25.9996 15.5225Z" fill="#9B62EE"/>
<circle cx="26" cy="26" r="24.75" stroke="#9B62EE" stroke-width="2.5"/>
</svg>
