<?xml version="1.0" encoding="utf-8"?>
<!-- Generator: Adobe Illustrator 26.4.1, SVG Export Plug-In . SVG Version: 6.00 Build 0)  -->
<svg version="1.1" id="レイヤー_1" xmlns="http://www.w3.org/2000/svg" xmlns:xlink="http://www.w3.org/1999/xlink" x="0px"
	 y="0px" viewBox="0 0 280 280" style="enable-background:new 0 0 280 280;" xml:space="preserve">
<style type="text/css">
	.st0{fill:#151515;}
	.st1{fill:#FFFFFF;}
	.st2{fill:url(#SVGID_1_);}
	.st3{fill:url(#SVGID_00000036959666593968512380000010771627363586676665_);}
	.st4{fill:url(#SVGID_00000085228198406126068370000007359518960576392638_);}
</style>
<g>
	<path class="st0" d="M243.2,280H36.8C16.6,280,0,263.4,0,243.2V36.8C0,16.6,16.6,0,36.8,0h206.3C263.4,0,280,16.6,280,36.8v206.3
		C280,263.4,263.4,280,243.2,280z"/>
</g>
<path class="st1" d="M56.2,123.8c-0.1,0.2-0.3,0.3-0.5,0.3c0,0-3.2,0.2-4.7,2.4c-0.7,1-1.2,2.5-1.4,4.5c3.3,0.1,5.4,0.2,5.4,0.2
	c0.4,0.1,0.7,0.5,0.7,1v8.5c0,0.5-0.3,1-0.7,1c0,0-2.3,0.1-5.7,0.2c0,2.6,0,4.9,0,6.5c0,6.7-0.3,18.9-0.3,19c0,0.5-0.3,0.9-0.7,0.9
	H34.2c-0.3,0-0.7-0.4-0.7-0.9c0-0.1-0.7-13.8-0.7-25.6c-2-0.1-3.1-0.1-3.2-0.1c-0.3,0-0.6-0.5-0.6-1v-8.5c0-0.5,0.3-0.9,0.6-1
	c0,0,1.3-0.1,3.3-0.1c0.1-5.3,0.6-9.9,2.2-13c2.2-4.1,5-5.5,10.8-5.5c7.4,0,9.3,1.7,9.4,1.9c0.2,0.1,0.3,0.4,0.3,0.7l0.7,8
	C56.3,123.3,56.3,123.6,56.2,123.8z"/>
<path class="st1" d="M87.6,167.5c0,0.5-0.3,0.9-0.6,0.9H71.7c-0.3,0-0.6-0.4-0.6-0.9c0-0.1-0.1-8.4,0.1-18.9
	c0.3-10.5,0.6-18.6,0.6-18.6c0-0.5,0.3-0.9,0.6-0.9h13.9c0.3,0,0.6,0.4,0.6,0.9c0,0.1,0.4,8.2,0.6,18.6
	C87.8,159.1,87.6,167.4,87.6,167.5z"/>
<path class="st1" d="M123,167.5c0,0.5-0.3,0.9-0.6,0.9h-15.3c-0.3,0-0.6-0.4-0.6-0.9c0-0.1-0.1-8.4,0.1-18.9
	c0.3-10.5,0.6-18.6,0.6-18.6c0-0.5,0.3-0.9,0.6-0.9h13.9c0.3,0,0.6,0.4,0.6,0.9c0,0.1,0.4,8.2,0.6,18.6
	C123.2,159.1,123,167.4,123,167.5z"/>
<path class="st1" d="M158.4,167.5c0,0.5-0.3,0.9-0.6,0.9h-15.3c-0.3,0-0.6-0.4-0.6-0.9c0-0.1-0.1-8.4,0.1-18.9
	c0.3-10.5,0.6-18.6,0.6-18.6c0-0.5,0.3-0.9,0.6-0.9h13.9c0.3,0,0.6,0.4,0.6,0.9c0,0.1,0.4,8.2,0.6,18.6
	C158.6,159.1,158.4,167.4,158.4,167.5z"/>
<linearGradient id="SVGID_1_" gradientUnits="userSpaceOnUse" x1="159.5296" y1="169.017" x2="140.6691" y2="173.6599" gradientTransform="matrix(1 0 0 -1 0 287.89)">
	<stop  offset="0" style="stop-color:#E42256"/>
	<stop  offset="3.990000e-02" style="stop-color:#E32955"/>
	<stop  offset="0.3278" style="stop-color:#DD4547"/>
	<stop  offset="0.5933" style="stop-color:#D9543B"/>
	<stop  offset="0.8258" style="stop-color:#D65B33"/>
	<stop  offset="1" style="stop-color:#D55E30"/>
</linearGradient>
<path class="st2" d="M150.1,126.3c5.4,0,9.7-4.3,9.7-9.7c0-5.4-4.3-9.7-9.7-9.7s-9.7,4.3-9.7,9.7
	C140.4,121.9,144.7,126.3,150.1,126.3z"/>
<linearGradient id="SVGID_00000140703112816805748800000016514920374221611447_" gradientUnits="userSpaceOnUse" x1="124.1687" y1="169.0172" x2="105.3082" y2="173.66" gradientTransform="matrix(1 0 0 -1 0 287.89)">
	<stop  offset="0" style="stop-color:#E42256"/>
	<stop  offset="3.990000e-02" style="stop-color:#E32955"/>
	<stop  offset="0.3278" style="stop-color:#DD4547"/>
	<stop  offset="0.5933" style="stop-color:#D9543B"/>
	<stop  offset="0.8258" style="stop-color:#D65B33"/>
	<stop  offset="1" style="stop-color:#D55E30"/>
</linearGradient>
<path style="fill:url(#SVGID_00000140703112816805748800000016514920374221611447_);" d="M114.7,126.3c5.4,0,9.7-4.3,9.7-9.7
	c0-5.4-4.3-9.7-9.7-9.7c-5.4,0-9.7,4.3-9.7,9.7C105,121.9,109.4,126.3,114.7,126.3z"/>
<linearGradient id="SVGID_00000106140050981381640960000013881152610899764914_" gradientUnits="userSpaceOnUse" x1="88.7997" y1="169.0171" x2="69.9394" y2="173.6599" gradientTransform="matrix(1 0 0 -1 0 287.89)">
	<stop  offset="0" style="stop-color:#E42256"/>
	<stop  offset="3.990000e-02" style="stop-color:#E32955"/>
	<stop  offset="0.3278" style="stop-color:#DD4547"/>
	<stop  offset="0.5933" style="stop-color:#D9543B"/>
	<stop  offset="0.8258" style="stop-color:#D65B33"/>
	<stop  offset="1" style="stop-color:#D55E30"/>
</linearGradient>
<path style="fill:url(#SVGID_00000106140050981381640960000013881152610899764914_);" d="M79.4,126.3c5.4,0,9.7-4.3,9.7-9.7
	c0-5.4-4.3-9.7-9.7-9.7c-5.4,0-9.7,4.3-9.7,9.7C69.7,121.9,74,126.3,79.4,126.3z"/>
<path class="st1" d="M191.7,126.3c5.4,0,9.7-4.3,9.7-9.7c0-5.4-4.3-9.7-9.7-9.7c-5.4,0-9.7,4.3-9.7,9.7
	C182,121.9,186.3,126.3,191.7,126.3z"/>
<path class="st1" d="M217.6,126.3c7.3,0,13.1-5.9,13.1-13.1c0-7.3-5.9-13.1-13.1-13.1c-7.3,0-13.1,5.9-13.1,13.1
	C204.5,120.4,210.3,126.3,217.6,126.3z"/>
<path class="st1" d="M249.7,136.6l-11.8,9.6v-14.8c0-1.4-1.1-2.5-2.5-2.5h-58.3c-1.4,0-2.5,1.1-2.5,2.5v34.5c0,1.4,1.1,2.5,2.5,2.5
	h9.4c-2.3-1.8-3.7-4.5-3.7-7.6c0-5.4,4.3-9.7,9.7-9.7s9.7,4.3,9.7,9.7c0,3.1-1.5,5.9-3.7,7.6h14.1c-2.3-1.8-3.7-4.5-3.7-7.6
	c0-5.4,4.3-9.7,9.7-9.7c5.4,0,9.7,4.3,9.7,9.7c0,3.1-1.5,5.9-3.7,7.6h10.9c1.4,0,2.5-1.1,2.5-2.5v-14.8l11.8,9.6
	c0.5,0.4,1.3,0.1,1.3-0.6v-22.9C251,136.5,250.3,136.2,249.7,136.6z"/>
</svg>
