<svg width="260" height="260" viewBox="0 0 260 260" fill="none" xmlns="http://www.w3.org/2000/svg">
<path d="M233.52 72.4125C232.967 72.786 232.445 73.1992 231.958 73.6786C231.47 74.1608 231.017 74.6746 230.63 75.2574C230.283 75.811 229.936 76.3938 229.687 77.0507C229.407 77.6706 229.195 78.3275 229.086 78.9818C228.943 79.6388 228.869 80.3301 228.864 80.9844C228.858 81.6784 228.925 82.3698 229.06 83.0241C229.16 83.6837 229.359 84.3433 229.632 84.9684C229.873 85.5909 230.212 86.2161 230.551 86.7697C230.93 87.326 231.375 87.8822 231.857 88.367C232.336 88.8226 232.856 89.2756 233.401 89.657C233.987 90.0438 234.575 90.359 235.195 90.6054C235.812 90.8861 236.471 91.0981 237.126 91.2067C237.814 91.3497 238.474 91.4212 239.163 91.4265C241.894 91.4451 244.564 90.359 246.511 88.4703C247.001 87.9909 247.42 87.4399 247.801 86.8889C248.188 86.3406 248.503 85.7181 248.784 85.0982C249.03 84.4784 249.239 83.8241 249.382 83.1645C249.526 82.5129 249.6 81.8188 249.602 81.1275C249.624 78.3964 248.537 75.7289 246.612 73.7793C244.212 71.3794 240.659 70.2483 237.266 70.8814C236.609 71.0165 235.95 71.2178 235.327 71.4562C234.705 71.729 234.111 72.0363 233.52 72.4125Z" fill="#FA54A5"/>
<path d="M247.963 103.52C242.289 104.275 238.31 109.47 239.068 115.141C239.759 120.365 244.157 124.129 249.272 124.166C249.722 124.169 250.207 124.137 250.692 124.071C256.363 123.316 260.376 118.087 259.621 112.447C258.864 106.741 253.675 102.762 247.963 103.52Z" fill="#F64C9F"/>
<path d="M228.17 201.217C232.068 204.044 232.957 209.518 229.875 213.217C214.325 231.88 193.813 245.861 170.627 253.489C144.673 262.027 116.689 262.172 90.6491 253.901C64.6089 245.631 41.8364 229.366 25.5656 207.417C9.29488 185.469 0.353117 158.951 0.0102374 131.631C-0.332642 104.312 7.94079 77.5783 23.6555 55.228C39.3703 32.8777 61.7275 16.0467 87.5519 7.12544C113.376 -1.79583 141.355 -2.35389 167.515 5.53053C190.885 12.5742 211.741 26.0358 227.755 44.3028C230.929 47.9236 230.177 53.4175 226.352 56.3419V56.3419C222.527 59.2662 217.079 58.5098 213.868 54.9222C200.107 39.5504 182.343 28.2115 162.483 22.2256C139.832 15.3987 115.606 15.8819 93.2454 23.6066C70.8849 31.3313 51.5265 45.9047 37.9195 65.2571C24.3126 84.6096 17.1489 107.757 17.4458 131.413C17.7427 155.068 25.4851 178.029 39.5734 197.033C53.6617 216.038 73.3798 230.121 95.9272 237.282C118.475 244.443 142.705 244.318 165.177 236.925C184.881 230.443 202.355 218.662 215.726 202.949C218.846 199.282 224.273 198.389 228.17 201.217V201.217Z" fill="url(#paint0_linear_129_3573)"/>
<path d="M250.18 137.86C244.588 136.713 239.1 140.342 237.958 145.934C236.779 151.56 240.403 157.046 246.029 158.193C246.721 158.334 247.378 158.376 248.072 158.379C252.909 158.413 257.253 155.02 258.254 150.119C259.401 144.493 255.807 139.007 250.18 137.86Z" fill="#EA378F"/>
<path d="M245.355 176.092C245.083 175.47 244.773 174.876 244.399 174.286C244.02 173.735 243.61 173.21 243.13 172.725C242.651 172.235 242.134 171.782 241.549 171.398C240.998 171.049 240.412 170.702 239.795 170.453C239.138 170.172 238.518 169.997 237.827 169.854C234.479 169.139 230.876 170.22 228.473 172.625C227.989 173.104 227.536 173.621 227.149 174.166C226.802 174.752 226.45 175.34 226.206 175.96C225.925 176.58 225.745 177.237 225.602 177.891C225.462 178.582 225.387 179.239 225.382 179.928C225.377 180.588 225.443 181.279 225.573 181.973C225.708 182.627 225.877 183.287 226.15 183.909C226.386 184.532 226.73 185.122 227.07 185.679C227.448 186.269 227.893 186.791 228.373 187.276C230.259 189.228 232.948 190.351 235.681 190.37C236.338 190.373 237.027 190.312 237.687 190.177C238.381 190.044 239.003 189.843 239.663 189.604C240.285 189.332 240.873 189.024 241.43 188.646C242.02 188.272 242.542 187.861 243.03 187.379C243.514 186.9 243.933 186.381 244.32 185.798C244.701 185.247 245.019 184.662 245.3 184.042C245.578 183.422 245.758 182.765 245.901 182.111C246.044 181.422 246.116 180.728 246.121 180.071C246.126 179.382 246.063 178.723 245.93 178.031C245.795 177.374 245.626 176.715 245.355 176.092Z" fill="#E32984"/>
<defs>
<linearGradient id="paint0_linear_129_3573" x1="131.461" y1="100" x2="115.859" y2="234.17" gradientUnits="userSpaceOnUse">
<stop stop-color="#FA53A5"/>
<stop offset="1" stop-color="#DD1F7D"/>
</linearGradient>
</defs>
</svg>
