<?xml version="1.0" encoding="utf-8"?>
<!-- Generator: Adobe Illustrator 26.4.1, SVG Export Plug-In . SVG Version: 6.00 Build 0)  -->
<svg version="1.1" id="レイヤー_1" xmlns="http://www.w3.org/2000/svg" xmlns:xlink="http://www.w3.org/1999/xlink" x="0px"
	 y="0px" viewBox="0 0 280 280" style="enable-background:new 0 0 280 280;" xml:space="preserve">
<style type="text/css">
	.st0{fill:#FFFFFF;}
	.st1{fill-rule:evenodd;clip-rule:evenodd;fill:#DF2517;}
	.st2{fill-rule:evenodd;clip-rule:evenodd;fill:#FFFFFF;}
	.st3{fill-rule:evenodd;clip-rule:evenodd;fill:#FFD700;}
	.st4{fill:#DF2517;}
	.st5{fill:#FFD700;}
</style>
<g>
	<path class="st0" d="M243.2,280H36.8C16.6,280,0,263.4,0,243.2V36.8C0,16.6,16.6,0,36.8,0h206.3C263.4,0,280,16.6,280,36.8v206.3
		C280,263.4,263.4,280,243.2,280z"/>
</g>
<path class="st1" d="M139,107.3c-3.7,0-6.7,3-6.7,6.7v24.2c0,3.7,3,6.7,6.7,6.7h33.6c3.7,0,6.7-3,6.7-6.7v-24.2c0-3.7-3-6.7-6.7-6.7
	H139z M160.4,112.7c3.2-1.8,0.5-5.3-3.2-5.3h-1.4h-1.4c-3.7,0-6.4,3.6-3.2,5.3c1.3,0.7,2.9,1.1,4.6,1.1
	C157.5,113.8,159.1,113.4,160.4,112.7z"/>
<path class="st2" d="M165.9,108.9L165.9,108.9L165.9,108.9c0.3-0.8-0.5-1.6-1.4-1.6h-13.4c-0.9,0-1.6,0.7-1.4,1.6l0,0l0,0
	c0.9,2.8,4.2,4.9,8.1,4.9C161.7,113.8,165,111.7,165.9,108.9z M143.8,108.9c2.5,0,4.6,1.9,6.4,3.6c1.9,1.8,4.7,2.9,7.7,2.9
	c2.9,0,5.8-1.1,7.7-2.9c1.8-1.7,3.9-3.6,6.4-3.6h3.1c3,0,5.4,2.4,5.4,5.4V138c0,3-2.4,5.4-5.4,5.4h-34.3c-3,0-5.4-2.4-5.4-5.4v-23.7
	c0-3,2.4-5.4,5.4-5.4H143.8z M176.6,107.3c3,0,5.4,2.4,5.4,5.4v26.9c0,3-2.4,5.4-5.4,5.4H139c-3,0-5.4-2.4-5.4-5.4v-26.9
	c0-3,2.4-5.4,5.4-5.4H176.6z"/>
<path class="st3" d="M122.9,77.8h32.2V59c-7.1,0-14.2,2.4-19.9,5.7c-5.5-3-12.3-5.2-19-5.2v18.3L122.9,77.8
	C122.9,77.8,122.9,77.8,122.9,77.8z"/>
<path class="st2" d="M155.1,77.8V59c-0.9,0-1.8,0-2.7,0.1c-6.2,0.5-12.2,2.7-17.2,5.6c-4.8-2.6-10.5-4.6-16.3-5.1
	c-0.9-0.1-1.8-0.1-2.7-0.1v18.3h6.7c0,0,0,0,0,0.1H155.1z M125.6,75.1h26.8V61.8c-5.6,0.5-11.2,2.5-15.8,5.2l-1.3,0.7l-1.3-0.7
	c-4.5-2.4-9.7-4.3-15-4.8V75L125.6,75.1L125.6,75.1z"/>
<path class="st4" d="M82.6,88.1c0-7.1,5.8-12.9,13-12.9h23.2V106H82.6V88.1z"/>
<path class="st2" d="M115.8,78.2H95.6c-5.5,0-9.9,4.4-9.9,9.9v14.9h30.1V78.2z M95.6,75.1c-7.2,0-13,5.8-13,12.9V106h36.3V75.1H95.6
	z"/>
<path class="st4" d="M187.3,88.4c0-7.1-5.7-12.8-12.8-12.8l-22.9,0l-0.1,30.5l35.6,0.1L187.3,88.4z"/>
<path class="st2" d="M154.7,78.6l19.8,0c5.4,0,9.7,4.4,9.7,9.8l0,14.7l-29.6,0L154.7,78.6z M174.6,75.6c7.1,0,12.8,5.7,12.8,12.8
	l0,17.7l-35.6-0.1l0.1-30.5L174.6,75.6z"/>
<path class="st1" d="M97,106c-3.5,0-6.4,2.8-6.4,6.4v31.2H106c0-3.6,3.6-6.5,8.1-6.6c4.5,0,8.2,2.8,8.3,6.4c0,0-1.8,0.1-4.4,0.1
	h19.8V106H97z"/>
<path class="st2" d="M117.9,143.6c2.6-0.1,4.4-0.1,4.4-0.1c0-0.1,0-0.1,0-0.2c-0.1-1-0.4-1.9-0.9-2.7c0,0,0-0.1-0.1-0.1
	c-1.4-2.1-4.2-3.5-7.3-3.5c-4.5,0-8,2.9-8.1,6.5c0,0,0,0,0,0.1H90.7v-31.2c0-3.5,2.9-6.4,6.4-6.4h40.6v37.6H117.9z M124.8,140.6h9.8
	V109H97c-1.8,0-3.3,1.5-3.3,3.3v28.2h9.8c1.5-4,6-6.5,10.5-6.6C118.5,134,123.2,136.4,124.8,140.6z"/>
<path class="st1" d="M137.7,142.3h-47v31.2c0,3.5,2.9,6.4,6.4,6.4h40.6v-12.3c-4.5,0-8.1-2.9-8.1-6.5c0-3.6,3.6-6.5,8.1-6.5V142.3z"
	/>
<path class="st2" d="M134.3,145.6H94v27.9c0,1.7,1.4,3,3,3h37.3v-6.1c-4.4-1.2-8.1-4.5-8.1-9.4c0-4.9,3.7-8.2,8.1-9.4V145.6z
	 M137.7,154.6c-4.5,0-8.1,2.9-8.1,6.5c0,3.6,3.6,6.5,8.1,6.5v12.3H97c-3.5,0-6.4-2.8-6.4-6.4v-31.2h47V154.6z"/>
<path class="st1" d="M117.5,75.1h34.9V106h-34.9V95.9c3.3,0,6-2.4,6-5.3s-2.7-5.3-6-5.3V75.1z M152.4,90.6v5.3c-3.3,0-6-2.4-6-5.3
	s2.7-5.3,6-5.3V90.6z"/>
<path class="st2" d="M149.6,95.3C149.6,95.3,149.6,95.3,149.6,95.3c0.8,0.4,1.8,0.6,2.8,0.6V85.2c-1,0-2,0.2-2.8,0.6c0,0,0,0,0,0
	c-1.9,0.9-3.2,2.7-3.2,4.7S147.7,94.4,149.6,95.3z M149.6,82.8c-3.3,1.1-6,3.9-6,7.8s2.7,6.7,6,7.8v4.7h-29.3v-4.7
	c3.3-1.1,6-3.9,6-7.8s-2.7-6.7-6-7.8V78h29.3V82.8z M152.4,75.1V106h-34.9V95.9c3.3,0,6-2.4,6-5.3s-2.7-5.3-6-5.3V75.1H152.4z"/>
<path class="st1" d="M135,107.3h40.6c3.5,0,6.4,2.8,6.4,6.4v6c-4.5,0-8.1,2.9-8.1,6.5s3.6,6.5,8.1,6.5v12.3h-47v-12.3
	c4.5,0,8.1-2.9,8.1-6.5s-3.6-6.5-8.1-6.5V107.3z"/>
<path class="st2" d="M135,107.3h40.6c3.5,0,6.4,2.8,6.4,6.4v6c-4.5,0-8.1,2.9-8.1,6.5s3.6,6.5,8.1,6.5v12.3h-47v-12.3
	c4.5,0,8.1-2.9,8.1-6.5s-3.6-6.5-8.1-6.5V107.3z M137.8,117.1c4.4,1,8.1,4.3,8.1,9c0,4.7-3.7,8-8.1,9v6.9h41.3v-6.9
	c-4.4-1-8.1-4.3-8.1-9c0-4.7,3.7-8,8.1-9v-3.4c0-1.9-1.6-3.5-3.5-3.5h-37.8V117.1z"/>
<path class="st1" d="M136.3,142.3v37.6h38.1c4.9,0,8.9-4,8.9-8.9v-28.7H136.3z M167.9,142.3h-8.1h-8.1c0,3.6,3.6,6.5,8.1,6.5
	C164.3,148.7,167.9,145.8,167.9,142.3z"/>
<path class="st2" d="M167.1,145.1L167.1,145.1c0.5-0.9,0.8-1.8,0.8-2.9h-16.2c0,1,0.3,2,0.8,2.9l0,0c1.3,2.1,4.1,3.6,7.3,3.6
	C163,148.7,165.8,147.3,167.1,145.1z M149.3,145.1c1.5,4,6,6.5,10.5,6.5c4.5,0,9-2.4,10.5-6.5h10.2V171c0,3.3-2.7,6-6.1,6h-35.2
	v-31.9H149.3z M183.3,142.3V171c0,4.9-4,8.9-8.9,8.9h-38.1v-37.6H183.3z"/>
<path class="st4" d="M122.9,143.6c0,3.7-3.9,6.7-8.7,6.7s-8.7-3-8.7-6.7c0-3.7,3.9-6.7,8.7-6.7S122.9,139.9,122.9,143.6z"/>
<path class="st4" d="M122.9,90.6c0,2.6-2.4,4.7-5.4,4.7c-3,0-5.4-2.1-5.4-4.7c0-2.6,2.4-4.7,5.4-4.7C120.5,85.9,122.9,88,122.9,90.6
	z"/>
<path class="st4" d="M147.9,90.8c0,2.9,2.7,5.2,6.1,5.2c3.4,0,6.2-2.3,6.2-5.2c0-2.9-2.7-5.2-6.1-5.2
	C150.7,85.6,147.9,87.9,147.9,90.8z"/>
<path class="st4" d="M143,126.1c0,3.7-3.6,6.7-8.1,6.7s-8.1-3-8.1-6.7c0-3.7,3.6-6.7,8.1-6.7S143,122.4,143,126.1z"/>
<path class="st4" d="M167.2,142.9c0,3.3-3.6,6-8.1,6c-4.4,0-8.1-2.7-8.1-6c0-3.3,3.6-6,8.1-6C163.6,136.9,167.2,139.6,167.2,142.9z"
	/>
<path class="st4" d="M145.7,161.1c0,3.7-3.6,6.7-8.1,6.7c-4.4,0-8.1-3-8.1-6.7c0-3.7,3.6-6.7,8.1-6.7
	C142.1,154.3,145.7,157.3,145.7,161.1z"/>
<path d="M150.9,210.8v-3.6h10.8v3.6H150.9z"/>
<path class="st5" d="M173.9,197h14.9v3.8h-10.2v6.4h9.5v3.6h-9.5v10.6h-4.7V197z"/>
<path class="st5" d="M197.6,221.5V197h5.1v24.5H197.6z"/>
<path class="st5" d="M230,197v3.9h-7v20.6h-4.8v-20.6h-7V197H230z"/>
<path class="st4" d="M49,197.1c2.3-0.3,4.8-0.5,7.4-0.5c3.4,0,5.9,0.7,7.6,2c1.7,1.3,2.5,3.2,2.5,5.8c0,2.8-0.8,4.9-2.5,6.3
	c-1.6,1.4-4,2.1-7.2,2.1c-1.3,0-2.4,0-3.2-0.1v8.7H49V197.1z M53.6,209.2c0.9,0.1,1.8,0.2,2.8,0.2c1.8,0,3.2-0.4,4.1-1.2
	c1-0.8,1.4-1.9,1.4-3.4c0-3-1.9-4.5-5.6-4.5c-1,0-1.9,0.1-2.8,0.2V209.2z"/>
<path class="st4" d="M77.9,197v14.8c0,4.1,1.6,6.1,4.8,6.1c3.2,0,4.8-2,4.8-6.1V197h4.6v14.5c0,3.4-0.8,6-2.5,7.7
	c-1.6,1.7-4,2.6-7.1,2.6c-3.1,0-5.4-0.9-7-2.6c-1.6-1.7-2.5-4.3-2.5-7.7V197H77.9z"/>
<path class="st4" d="M105.1,211.9v9.6h-4.6v-24.3c2.3-0.3,4.7-0.5,7.4-0.5c3.3,0,5.8,0.6,7.4,1.8c1.6,1.2,2.5,2.9,2.5,5.1
	c0,1.6-0.4,3-1.3,4.2c-0.9,1.2-2,2-3.5,2.5v0.1c1.1,0.6,2,2,2.8,4l2.7,7h-4.8l-2.6-6.9c-0.4-1.1-0.9-1.8-1.4-2.1
	c-0.5-0.3-1.4-0.5-2.7-0.5H105.1z M105.1,208.4h2c4,0,6-1.4,6-4.3c0-2.5-1.8-3.8-5.5-3.8c-0.9,0-1.7,0.1-2.4,0.2V208.4z"/>
<path class="st4" d="M130.4,200.8v6h9.8v3.6h-9.8v7.3h10.5v3.8h-15.2V197h15.2v3.8H130.4z"/>
</svg>
