<svg width="101" height="115" viewBox="0 0 101 115" fill="none" xmlns="http://www.w3.org/2000/svg">
<path d="M3.12928 98.6681H0L1.50288 96.1084H5.8674V114.218H3.13614V98.6681H3.12928Z" fill="#00A8A6"/>
<path d="M20.0314 95.4834L22.0352 96.9863L17.705 102.874C17.9383 102.847 18.1373 102.819 18.302 102.806C18.4667 102.792 18.5971 102.785 18.6863 102.785C20.1549 102.785 21.4245 103.348 22.495 104.473C23.5587 105.585 24.0871 106.923 24.0871 108.481C24.0871 110.142 23.4901 111.562 22.3029 112.749C21.1225 113.93 19.702 114.52 18.0481 114.52C16.3943 114.52 14.9669 113.937 13.7316 112.77C12.517 111.603 11.9131 110.224 11.9131 108.632C11.9131 107.204 12.5033 105.688 13.6836 104.082L20.0176 95.4834H20.0314ZM21.4382 108.652C21.4382 107.692 21.1088 106.875 20.4431 106.216C19.7775 105.557 18.9608 105.208 18.0138 105.208C17.0668 105.208 16.2502 105.537 15.5845 106.203C14.9188 106.868 14.5894 107.671 14.5894 108.618C14.5894 109.565 14.9188 110.368 15.5845 111.034C16.2502 111.699 17.0599 112.029 18.0207 112.029C18.9814 112.029 19.7569 111.699 20.4225 111.034C21.0882 110.368 21.4313 109.565 21.4313 108.652H21.4382Z" fill="#00A8A6"/>
<path d="M29.6113 102.799H32.2465V103.856C32.7543 103.327 33.1867 102.964 33.5504 102.778C33.9347 102.586 34.415 102.483 34.9915 102.483C36.2816 102.483 37.3041 103.046 38.0522 104.172C38.8825 103.046 40.0011 102.483 41.4216 102.483C43.995 102.483 45.2783 104.041 45.2783 107.164V114.225H42.6294V107.877C42.6294 106.786 42.499 106.011 42.2314 105.558C41.9569 105.098 41.5108 104.865 40.8795 104.865C40.1521 104.865 39.6237 105.139 39.2874 105.688C38.958 106.237 38.7864 107.116 38.7864 108.33V114.232H36.1375V107.925C36.1375 105.894 35.5542 104.878 34.3807 104.878C33.6396 104.878 33.0975 105.16 32.7543 105.709C32.4112 106.265 32.2465 107.136 32.2465 108.337V114.239H29.6113V102.813V102.799Z" fill="#00A8A6"/>
<path d="M61.5355 109.133H53.3486C53.4172 110.073 53.726 110.821 54.2613 111.37C54.8034 111.919 55.4896 112.194 56.3337 112.194C56.9925 112.194 57.5347 112.036 57.967 111.727C58.3925 111.411 58.8728 110.835 59.4081 109.991L61.6384 111.233C61.2953 111.816 60.9316 112.324 60.5473 112.743C60.163 113.161 59.7512 113.505 59.3189 113.772C58.8797 114.04 58.4062 114.239 57.8984 114.362C57.3905 114.486 56.8415 114.548 56.2445 114.548C54.5426 114.548 53.1701 113.999 52.1408 112.907C51.1114 111.803 50.5898 110.341 50.5898 108.522C50.5898 106.704 51.0908 105.256 52.0927 104.137C53.1015 103.032 54.4397 102.483 56.1004 102.483C57.7611 102.483 59.113 103.019 60.0875 104.089C61.0551 105.153 61.5423 106.628 61.5423 108.509L61.5286 109.133H61.5355ZM58.8248 106.978C58.4542 105.571 57.569 104.865 56.1622 104.865C55.8396 104.865 55.5377 104.913 55.2563 105.009C54.975 105.105 54.721 105.249 54.4877 105.434C54.2544 105.62 54.0622 105.839 53.8975 106.1C53.7329 106.361 53.6093 106.649 53.5201 106.978H58.8179H58.8248Z" fill="#00A8A6"/>
<path d="M66.9434 102.799H69.5785V103.856C70.0864 103.327 70.5187 102.964 70.8824 102.778C71.2667 102.586 71.7471 102.483 72.3235 102.483C73.6137 102.483 74.6362 103.046 75.3842 104.172C76.2145 103.046 77.3331 102.483 78.7537 102.483C81.3271 102.483 82.6104 104.041 82.6104 107.164V114.225H79.9614V107.877C79.9614 106.786 79.8311 106.011 79.5634 105.558C79.2889 105.098 78.8429 104.865 78.2115 104.865C77.4841 104.865 76.9557 105.139 76.6194 105.688C76.29 106.237 76.1185 107.116 76.1185 108.33V114.232H73.4696V107.925C73.4696 105.894 72.8862 104.878 71.7128 104.878C70.9716 104.878 70.4295 105.16 70.0864 105.709C69.7432 106.265 69.5785 107.136 69.5785 108.337V114.239H66.9434V102.813V102.799Z" fill="#00A8A6"/>
<path d="M87.9297 108.426C87.9297 106.779 88.5199 105.372 89.7002 104.22C90.8806 103.06 92.3217 102.483 94.0167 102.483C95.7117 102.483 97.1666 103.067 98.3538 104.233C99.5273 105.4 100.111 106.827 100.111 108.522C100.111 110.217 99.5204 111.672 98.3401 112.825C97.1529 113.971 95.6912 114.548 93.9618 114.548C92.2325 114.548 90.812 113.964 89.6591 112.791C88.4993 111.631 87.9229 110.183 87.9229 108.426H87.9297ZM90.6267 108.474C90.6267 109.613 90.9286 110.519 91.5394 111.185C92.1639 111.858 92.9874 112.194 94.0167 112.194C95.0461 112.194 95.8764 111.864 96.4941 111.199C97.1117 110.533 97.4205 109.648 97.4205 108.536C97.4205 107.424 97.1117 106.539 96.4941 105.873C95.8696 105.201 95.0461 104.865 94.0167 104.865C92.9874 104.865 92.1913 105.201 91.5668 105.873C90.9423 106.546 90.6267 107.418 90.6267 108.474V108.474Z" fill="#00A8A6"/>
<path d="M57.4348 83.8246C61.509 83.8246 64.8119 80.5217 64.8119 76.4475C64.8119 72.3732 61.509 69.0703 57.4348 69.0703C53.3605 69.0703 50.0576 72.3732 50.0576 76.4475C50.0576 80.5217 53.3605 83.8246 57.4348 83.8246Z" fill="#00A8A6"/>
<path d="M42.6789 14.7543C46.7532 14.7543 50.056 11.4514 50.056 7.37714C50.056 3.30286 46.7532 0 42.6789 0C38.6046 0 35.3018 3.30286 35.3018 7.37714C35.3018 11.4514 38.6046 14.7543 42.6789 14.7543Z" fill="#A2D6D3"/>
<path d="M71.5784 33.9556L73.9185 20.6904H60.1936L57.8535 33.9556H71.5784Z" fill="#00A8A6"/>
<path d="M71.5784 33.9556L73.9185 20.6904H60.1936L57.8535 33.9556H71.5784Z" fill="#00A8A6"/>
<path d="M52.7129 63.1353H66.4378L68.771 49.8701H55.0461L52.7129 63.1353Z" fill="#00A8A6"/>
<path d="M83.3537 20.6904H20.9053V33.9556H83.3537V20.6904Z" fill="#00808A"/>
<path d="M36.3509 83.8251H22.626L33.7569 20.6904H47.4818L36.3509 83.8251Z" fill="#A2D6D3"/>
<path d="M79.2628 49.8701H16.8145V63.1353H79.2628V49.8701Z" fill="#00808A"/>
<path d="M66.4378 63.1346H52.7129L63.8438 0H77.5687L66.4378 63.1346Z" fill="#00A8A6"/>
<path d="M72.1611 33.9556L74.5012 20.6904H59.6096L57.2695 33.9556H72.1611Z" fill="#00808A"/>
</svg>
