<?xml version="1.0" encoding="utf-8"?>
<!-- Generator: Adobe Illustrator 26.4.1, SVG Export Plug-In . SVG Version: 6.00 Build 0)  -->
<svg version="1.1" id="レイヤー_1" xmlns="http://www.w3.org/2000/svg" xmlns:xlink="http://www.w3.org/1999/xlink" x="0px"
	 y="0px" viewBox="0 0 280 280" style="enable-background:new 0 0 280 280;" xml:space="preserve">
<style type="text/css">
	.st0{fill:#FFF6E3;}
	.st1{fill:url(#SVGID_1_);}
	.st2{fill:url(#SVGID_00000051344973187025744270000018391819823723809158_);}
	.st3{fill:#231815;}
	.st4{fill:url(#SVGID_00000181062167652631880150000001261354712312381104_);}
</style>
<g>
	<path class="st0" d="M0,280V0h280v280H0z"/>
	<g>
		
			<linearGradient id="SVGID_1_" gradientUnits="userSpaceOnUse" x1="30.2009" y1="452.234" x2="65.1802" y2="487.1297" gradientTransform="matrix(1 0 0 1 0 -342.11)">
			<stop  offset="0.67" style="stop-color:#F3A72A"/>
			<stop  offset="1" style="stop-color:#FFC656"/>
		</linearGradient>
		<path class="st1" d="M47.7,152.3c13.6,0,24.7-11.1,24.7-24.7c0-13.7-11-24.7-24.7-24.7S23,113.9,23,127.6
			C23,141.2,34,152.3,47.7,152.3z"/>
		
			<linearGradient id="SVGID_00000123414056818234464750000016672899977095170991_" gradientUnits="userSpaceOnUse" x1="58.592" y1="477.3436" x2="93.5335" y2="512.2021" gradientTransform="matrix(1 0 0 1 0 -342.11)">
			<stop  offset="0.67" style="stop-color:#5FB99C"/>
			<stop  offset="1" style="stop-color:#3EA584"/>
		</linearGradient>
		<path style="fill:url(#SVGID_00000123414056818234464750000016672899977095170991_);" d="M76.1,177.4c13.6,0,24.7-11.1,24.7-24.7
			c0-13.7-11-24.7-24.7-24.7c-13.6,0-24.7,11.1-24.7,24.7C51.4,166.4,62.4,177.4,76.1,177.4z"/>
		<path class="st3" d="M32.8,169.8c-0.4,0-0.8-0.1-1.1-0.4c-0.5-0.4-0.8-1.1-0.6-1.8l4.4-17.6c-1.9-4-2.9-8.4-2.9-12.9
			c0-16.3,13.3-29.6,29.6-29.6s29.6,13.3,29.6,29.6s-13.3,29.6-29.6,29.6c-5.1,0-10.1-1.3-14.5-3.8l-14,6.7
			C33.3,169.7,33,169.8,32.8,169.8L32.8,169.8z M62.1,111c-14.4,0-26,11.7-26,26.1c0,4.2,1,8.2,2.8,11.9c0.2,0.4,0.2,0.8,0.1,1.2
			l-3.6,14.6l11.5-5.5c0.5-0.3,1.2-0.2,1.7,0.1c4.1,2.5,8.8,3.8,13.5,3.8c14.4,0,26-11.7,26-26.1S76.4,111,62.1,111L62.1,111z"/>
		<path class="st3" d="M66.9,153.4H56.6c-3.1,0-5.7-2.6-5.7-5.7v-14.6c0-3.1,2.5-5.7,5.7-5.7H67c3.1,0,5.7,2.6,5.7,5.7v14.6
			C72.6,150.9,70,153.4,66.9,153.4z M56.6,130.2c-1.6,0-3,1.3-3,3v14.6c0,1.6,1.3,3,3,3H67c1.6,0,3-1.3,3-3v-14.6c0-1.6-1.3-3-3-3
			H56.6z"/>
		<path class="st3" d="M57.6,151.7h2.8v3.1c0,0.7-0.6,1.3-1.3,1.3h-0.2c-0.7,0-1.3-0.6-1.3-1.3V151.7L57.6,151.7z"/>
		<path class="st3" d="M64.1,156.1h-0.2c-0.7,0-1.3-0.6-1.3-1.3v-3.1h2.8v3.1C65.4,155.5,64.8,156.1,64.1,156.1L64.1,156.1z"/>
		<path class="st3" d="M65.5,129.9h-8.1c-0.6,0-1-0.5-1-1v-7.6c0-0.6,0.5-1,1-1h8.1c0.6,0,1,0.5,1,1v7.6
			C66.6,129.4,66.1,129.9,65.5,129.9L65.5,129.9z M58.5,127.8h6v-5.6h-6V127.8z"/>
		<path d="M123.6,146.4c0,0.7-0.2,1.4-0.6,2.1c-0.4,0.8-1,1.5-1.8,2.1c-0.8,0.7-1.8,1.2-3.1,1.6c-1.2,0.4-2.6,0.6-4.2,0.6
			c-3.3,0-5.8-1-7.7-2.9c-1.8-1.9-2.8-4.5-2.8-7.7c0-2.2,0.4-4.1,1.3-5.8c0.8-1.7,2.1-3,3.6-3.9c1.6-0.9,3.5-1.4,5.7-1.4
			c1.4,0,2.6,0.2,3.8,0.6c1.1,0.4,2.1,0.9,2.9,1.6c0.8,0.6,1.4,1.3,1.8,2s0.6,1.4,0.6,2s-0.2,1.2-0.7,1.6c-0.5,0.4-1,0.7-1.7,0.7
			c-0.4,0-0.8-0.1-1.1-0.3c-0.3-0.2-0.6-0.6-1-1.1c-0.6-1-1.3-1.7-2-2.2s-1.6-0.7-2.7-0.7c-1.6,0-2.8,0.6-3.8,1.8s-1.4,2.9-1.4,5
			c0,1,0.1,1.9,0.4,2.8c0.2,0.8,0.6,1.5,1.1,2.1s1,1,1.7,1.3s1.4,0.5,2.2,0.5c1.1,0,2-0.2,2.7-0.7c0.8-0.5,1.4-1.2,2-2.3
			c0.3-0.6,0.7-1.1,1-1.4c0.4-0.3,0.8-0.5,1.4-0.5s1.2,0.2,1.6,0.7C123.3,145.4,123.6,145.9,123.6,146.4z"/>
		<path d="M133.3,126.8v7.9c0.7-0.8,1.3-1.4,2-1.8c0.6-0.5,1.3-0.8,2.1-1s1.6-0.3,2.5-0.3c1.3,0,2.5,0.3,3.6,0.9
			c1,0.6,1.9,1.4,2.5,2.5c0.4,0.6,0.6,1.3,0.8,2.1c0.1,0.8,0.2,1.7,0.2,2.7V150c0,1.1-0.2,1.9-0.7,2.4s-1.1,0.8-1.9,0.8
			c-1.7,0-2.6-1.1-2.6-3.2v-9c0-1.7-0.3-3-0.8-3.9s-1.5-1.4-2.9-1.4c-0.9,0-1.8,0.3-2.6,0.8s-1.3,1.3-1.7,2.2
			c-0.3,0.8-0.4,2.2-0.4,4.2v7c0,1.1-0.2,1.9-0.7,2.4c-0.5,0.6-1.1,0.8-2,0.8c-1.7,0-2.6-1.1-2.6-3.2v-23c0-1.1,0.2-1.9,0.7-2.4
			s1.1-0.8,1.9-0.8s1.5,0.3,2,0.8C133.1,124.9,133.3,125.7,133.3,126.8L133.3,126.8z"/>
		<path d="M165.5,150c-1.3,1-2.5,1.7-3.7,2.2s-2.5,0.7-4,0.7c-1.4,0-2.6-0.3-3.6-0.8s-1.8-1.3-2.4-2.2c-0.6-0.9-0.8-1.9-0.8-3
			c0-1.4,0.5-2.7,1.4-3.7s2.2-1.7,3.8-2.1c0.3-0.1,1.2-0.3,2.5-0.5s2.5-0.5,3.4-0.7s2-0.5,3.1-0.8c-0.1-1.4-0.3-2.4-0.8-3.1
			c-0.5-0.7-1.5-1-3.1-1c-1.3,0-2.4,0.2-3,0.6c-0.7,0.4-1.3,0.9-1.7,1.7c-0.5,0.8-0.8,1.2-1,1.5c-0.2,0.2-0.6,0.4-1.3,0.4
			c-0.6,0-1.1-0.2-1.5-0.6c-0.4-0.4-0.6-0.9-0.6-1.5c0-0.9,0.3-1.8,1-2.7s1.7-1.6,3.1-2.2c1.4-0.6,3.1-0.9,5.2-0.9
			c2.3,0,4.2,0.3,5.5,0.8s2.3,1.4,2.8,2.6c0.6,1.2,0.8,2.8,0.8,4.7c0,1.2,0,2.3,0,3.2s0,1.8,0,2.9c0,1,0.2,2,0.5,3.1
			s0.5,1.8,0.5,2.1c0,0.5-0.3,1-0.8,1.5c-0.5,0.4-1.1,0.7-1.7,0.7c-0.5,0-1.1-0.3-1.6-0.8C166.7,151.7,166.1,151,165.5,150
			L165.5,150z M165.2,142.3c-0.8,0.3-1.9,0.6-3.4,0.9c-1.5,0.3-2.5,0.6-3.1,0.7s-1.1,0.4-1.6,0.9c-0.5,0.4-0.8,1-0.8,1.8
			s0.3,1.5,0.9,2.1c0.6,0.6,1.4,0.8,2.4,0.8s2-0.2,2.9-0.7s1.5-1.1,1.9-1.8c0.5-0.8,0.7-2.1,0.7-4L165.2,142.3L165.2,142.3z"/>
		<path d="M176.1,131.9h0.6v-3.2c0-0.9,0-1.5,0.1-2c0-0.5,0.2-0.9,0.4-1.3s0.5-0.7,0.9-0.9c0.4-0.2,0.8-0.3,1.3-0.3
			c0.7,0,1.3,0.3,1.8,0.8c0.4,0.3,0.6,0.7,0.7,1.2c0.1,0.5,0.1,1.2,0.1,2.1v3.6h1.9c0.8,0,1.3,0.2,1.7,0.5c0.4,0.4,0.6,0.8,0.6,1.4
			c0,0.7-0.3,1.2-0.8,1.5c-0.6,0.3-1.4,0.4-2.4,0.4h-1v9.8c0,0.8,0,1.5,0.1,1.9s0.2,0.8,0.5,1.1s0.7,0.4,1.2,0.4
			c0.3,0,0.7-0.1,1.3-0.2c0.5-0.1,0.9-0.2,1.2-0.2c0.4,0,0.8,0.2,1.2,0.5c0.3,0.3,0.5,0.8,0.5,1.3c0,0.9-0.5,1.5-1.4,2
			s-2.3,0.7-4,0.7s-2.9-0.3-3.8-0.8c-0.9-0.6-1.4-1.3-1.7-2.3s-0.4-2.3-0.4-3.9v-10.2H176c-0.8,0-1.3-0.2-1.7-0.5
			c-0.4-0.4-0.6-0.8-0.6-1.4c0-0.6,0.2-1,0.6-1.4C174.6,132.1,175.3,131.9,176.1,131.9L176.1,131.9z"/>
		<path d="M190.1,131.9h0.6v-3.2c0-0.9,0-1.5,0.1-2c0-0.5,0.2-0.9,0.4-1.3s0.5-0.7,0.9-0.9c0.4-0.2,0.8-0.3,1.3-0.3
			c0.7,0,1.3,0.3,1.8,0.8c0.4,0.3,0.6,0.7,0.7,1.2c0.1,0.5,0.1,1.2,0.1,2.1v3.6h1.9c0.7,0,1.3,0.2,1.7,0.5c0.4,0.4,0.6,0.8,0.6,1.4
			c0,0.7-0.3,1.2-0.8,1.5c-0.6,0.3-1.4,0.4-2.4,0.4h-1v9.8c0,0.8,0,1.5,0.1,1.9s0.2,0.8,0.5,1.1s0.7,0.4,1.2,0.4
			c0.3,0,0.7-0.1,1.3-0.2c0.5-0.1,0.9-0.2,1.2-0.2c0.4,0,0.8,0.2,1.2,0.5c0.3,0.3,0.5,0.8,0.5,1.3c0,0.9-0.5,1.5-1.4,2
			s-2.3,0.7-4,0.7s-2.9-0.3-3.8-0.8c-0.9-0.6-1.4-1.3-1.7-2.3s-0.4-2.3-0.4-3.9v-10.2H190c-0.8,0-1.3-0.2-1.7-0.5
			c-0.4-0.4-0.6-0.8-0.6-1.4c0-0.6,0.2-1,0.6-1.4C188.7,132.1,189.3,131.9,190.1,131.9L190.1,131.9z"/>
		<path d="M217.3,150c-1.3,1-2.5,1.7-3.7,2.2s-2.5,0.7-4,0.7c-1.4,0-2.6-0.3-3.6-0.8s-1.8-1.3-2.4-2.2c-0.6-0.9-0.8-1.9-0.8-3
			c0-1.4,0.5-2.7,1.4-3.7s2.2-1.7,3.8-2.1c0.3-0.1,1.2-0.3,2.5-0.5c1.3-0.3,2.5-0.5,3.4-0.7s2-0.5,3.1-0.8c-0.1-1.4-0.3-2.4-0.8-3.1
			c-0.5-0.7-1.5-1-3.1-1c-1.3,0-2.4,0.2-3,0.6c-0.7,0.4-1.3,0.9-1.7,1.7c-0.5,0.8-0.8,1.2-1,1.5c-0.2,0.2-0.6,0.4-1.3,0.4
			c-0.6,0-1.1-0.2-1.5-0.6c-0.4-0.4-0.6-0.9-0.6-1.5c0-0.9,0.3-1.8,1-2.7s1.7-1.6,3.1-2.2c1.4-0.6,3.1-0.9,5.2-0.9
			c2.3,0,4.2,0.3,5.5,0.8c1.3,0.6,2.3,1.4,2.8,2.6c0.5,1.2,0.8,2.8,0.8,4.7c0,1.2,0,2.3,0,3.2s0,1.8,0,2.9c0,1,0.2,2,0.5,3.1
			s0.5,1.8,0.5,2.1c0,0.5-0.3,1-0.8,1.5c-0.5,0.4-1.1,0.7-1.7,0.7c-0.5,0-1.1-0.3-1.6-0.8C218.4,151.7,217.9,151,217.3,150
			L217.3,150z M216.9,142.3c-0.8,0.3-1.9,0.6-3.4,0.9c-1.5,0.3-2.5,0.6-3.1,0.7c-0.6,0.1-1.1,0.4-1.6,0.9c-0.5,0.4-0.8,1-0.8,1.8
			s0.3,1.5,0.9,2.1c0.6,0.6,1.4,0.8,2.4,0.8s2-0.2,2.9-0.7s1.5-1.1,1.9-1.8c0.5-0.8,0.7-2.1,0.7-4L216.9,142.3L216.9,142.3z"/>
		<path d="M232.4,126.6v8.1c1-1,2-1.8,3-2.4c1-0.6,2.3-0.8,3.8-0.8c1.8,0,3.3,0.4,4.6,1.3c1.3,0.8,2.4,2,3.1,3.6
			c0.7,1.6,1.1,3.5,1.1,5.6c0,1.6-0.2,3.1-0.6,4.4c-0.4,1.3-1,2.5-1.8,3.5s-1.7,1.7-2.8,2.3c-1.1,0.5-2.3,0.8-3.7,0.8
			c-0.8,0-1.6-0.1-2.3-0.3s-1.3-0.4-1.8-0.8c-0.5-0.3-0.9-0.6-1.3-1c-0.4-0.3-0.8-0.8-1.4-1.5v0.5c0,1-0.2,1.8-0.7,2.3
			s-1.1,0.8-1.8,0.8s-1.3-0.3-1.8-0.8c-0.4-0.5-0.7-1.3-0.7-2.3v-23.2c0-1.1,0.2-1.9,0.6-2.4c0.4-0.6,1-0.8,1.8-0.8s1.4,0.3,1.9,0.8
			C232.2,124.9,232.4,125.6,232.4,126.6L232.4,126.6z M232.6,142.3c0,2.1,0.5,3.7,1.4,4.9c1,1.1,2.2,1.7,3.8,1.7
			c1.3,0,2.5-0.6,3.4-1.7c1-1.2,1.4-2.8,1.4-5c0-1.4-0.2-2.6-0.6-3.6c-0.4-1-1-1.8-1.7-2.3c-0.7-0.6-1.6-0.8-2.6-0.8
			s-1.9,0.3-2.7,0.8c-0.8,0.6-1.4,1.3-1.9,2.4C232.9,139.7,232.6,140.9,232.6,142.3L232.6,142.3z"/>
		
			<linearGradient id="SVGID_00000005945690657227940330000004366805015896096646_" gradientUnits="userSpaceOnUse" x1="258" y1="468.31" x2="252.7077" y2="468.31" gradientTransform="matrix(1 0 0 1 0 -342.11)">
			<stop  offset="0.67" style="stop-color:#5FB99C"/>
			<stop  offset="1" style="stop-color:#3EA584"/>
		</linearGradient>
		<path style="fill:url(#SVGID_00000005945690657227940330000004366805015896096646_);" d="M255.4,128.8c-0.7,0-1.4-0.2-1.9-0.7
			s-0.8-1.1-0.8-1.9s0.3-1.4,0.8-1.9s1.2-0.7,1.9-0.7c0.7,0,1.3,0.2,1.8,0.7c0.5,0.4,0.8,1.1,0.8,1.9s-0.3,1.5-0.8,1.9
			C256.7,128.6,256.1,128.8,255.4,128.8L255.4,128.8z"/>
		<path d="M258,134.4l-0.1,16c0,1.1-0.3,1.9-0.8,2.5s-1.1,0.8-1.9,0.8c-0.8,0-1.4-0.3-1.9-0.9c-0.5-0.6-0.7-1.4-0.7-2.5l0.1-15.8
			c0-1.1,0.3-1.9,0.7-2.5c0.5-0.6,1.1-0.8,1.9-0.8s1.4,0.3,1.9,0.8C257.7,132.7,258,133.4,258,134.4L258,134.4z"/>
	</g>
</g>
</svg>
