<?xml version="1.0" encoding="utf-8"?>
<!-- Generator: Adobe Illustrator 26.4.1, SVG Export Plug-In . SVG Version: 6.00 Build 0)  -->
<svg version="1.1" id="レイヤー_1" xmlns="http://www.w3.org/2000/svg" xmlns:xlink="http://www.w3.org/1999/xlink" x="0px"
	 y="0px" viewBox="0 0 280 280" style="enable-background:new 0 0 280 280;" xml:space="preserve">
<style type="text/css">
	.st0{fill:#FAB824;}
	.st1{clip-path:url(#SVGID_00000020360042179316224630000018090272799466371713_);}
	.st2{fill:#FFFFFF;}
</style>
<g>
	<path class="st0" d="M280,280H0V0h280V280z"/>
	<g>
		<g>
			<defs>
				<rect id="SVGID_1_" x="31" y="84" width="218.5" height="112"/>
			</defs>
			<clipPath id="SVGID_00000152971375315386551330000016643590336925486219_">
				<use xlink:href="#SVGID_1_"  style="overflow:visible;"/>
			</clipPath>
			<g style="clip-path:url(#SVGID_00000152971375315386551330000016643590336925486219_);">
				<path class="st2" d="M134.6,137c0,26.4-21.4,47.9-47.8,48.1c-26.6,0.2-48.4-21.8-48.4-48.4V92.8c0-2.1,1.7-3.9,3.9-3.9h44.2
					C113.1,89,134.6,110.5,134.6,137z"/>
				<path class="st2" d="M153.3,148c0-26.4,21.4-47.9,47.8-48.1c26.6-0.2,48.4,21.8,48.4,48.4v43.9c0,2.1-1.7,3.9-3.9,3.9h-44.2
					C174.9,196,153.3,174.5,153.3,148L153.3,148z"/>
				<path class="st2" d="M73.2,169c-2.2,0-4.3-0.8-5.8-2.4c-1.6-1.6-2.4-3.6-2.4-5.9v-14.9c0-1.3-0.1-2.1-0.1-2.7c0,0,0,0-0.1,0
					c-0.1,0.1-0.2,0.1-0.2,0.2v17.4c0,2.2-0.8,4.2-2.3,5.8c-1.6,1.6-3.6,2.5-5.9,2.5c-2.3,0-4.3-0.8-5.9-2.4
					c-1.6-1.6-2.4-3.6-2.4-5.9v-14.9c0-1.3-0.1-2.1-0.1-2.7c0,0,0,0-0.1,0c-0.1,0.1-0.2,0.1-0.2,0.2v17.3c0,2.3-0.8,4.4-2.4,6
					c-1.6,1.6-3.6,2.4-5.9,2.4c-2.3,0-4.3-0.9-5.9-2.5c-1.6-1.6-2.4-3.6-2.4-5.9v-23.9c0-2.2,0.8-4.2,2.4-5.8
					c1.5-1.5,3.5-2.3,5.6-2.3h0.4c1.7,0,3.3,0.5,4.6,1.5c2.7-1.7,5.3-2.2,7.2-2.2c2.6,0,4.9,0.6,6.7,1.7c0.5,0.3,0.9,0.6,1.4,1
					c2.5-1.8,5.3-2.7,8.2-2.7c4.7,0,8.3,1.5,10.6,4.3c2.2,2.6,3.2,6.6,3.2,12.2v16.2c0,2.3-0.8,4.3-2.4,5.9
					C77.4,168.2,75.4,169.1,73.2,169L73.2,169z M56.2,140.6c0,0.1,0.1,0.3,0.1,0.4c0-0.1,0.1-0.2,0.1-0.3
					C56.3,140.6,56.2,140.6,56.2,140.6z M39.6,139.3v1.1c0.1-0.2,0.2-0.5,0.3-0.7C39.8,139.6,39.7,139.4,39.6,139.3L39.6,139.3z"/>
				<path class="st2" d="M98.6,169.6c-6.1,0-11-1.9-14.5-5.6c-3.5-3.7-5.2-8.8-5.2-15.1s1.8-11.4,5.2-15.1c3.5-3.8,8.4-5.7,14.5-5.7
					s11,1.9,14.5,5.7c3.5,3.7,5.2,8.8,5.2,15.1s-1.8,11.4-5.2,15.1C109.6,167.7,104.7,169.6,98.6,169.6L98.6,169.6z M98.5,142.6
					c-1.4,0-1.7,0.5-1.9,0.7c-0.3,0.4-1,1.8-1,5.6c0,3.7,0.7,5.1,1,5.6c0.2,0.3,0.5,0.7,1.9,0.7s1.7-0.5,1.9-0.7
					c0.3-0.4,1-1.8,1-5.5s-0.7-5.1-1-5.5C100.3,143.1,100,142.6,98.5,142.6L98.5,142.6z"/>
				<path class="st2" d="M130.4,183.1c-3.3,0-6.9-0.5-10.7-1.6h-0.1c-1.9-0.6-3.5-1.7-4.6-3.3c-1.1-1.5-1.6-3.3-1.6-5.1
					c0-2.2,1-4.1,2.8-5.3c1.2-0.8,2.6-1.2,4-1.1c-0.4-0.2-0.8-0.3-1.1-0.5c-3.2-1.8-5-4.9-5-8.6c0-1.7,0.5-3.4,1.5-5.2
					c-1.6-2.4-2.4-5.2-2.4-8.3c0-4.6,1.5-8.4,4.6-11.4c3-3,6.9-4.5,11.5-4.5c3.3,0,6.2,0.7,8.8,2.1c1.3-1,2.8-1.5,4.3-1.5h0.7
					c2.2,0,4.1,0.8,5.6,2.3s2.3,3.5,2.3,5.6v7.5c0,6.4-2.9,9.9-5.4,11.8c-0.2,0.2-0.5,0.4-0.8,0.5c0.3,0.2,0.6,0.3,0.9,0.5
					c3.7,2.2,5.6,5.8,5.6,10.3c0,5-2.1,9.1-6.1,11.9C141.8,181.9,136.8,183.1,130.4,183.1L130.4,183.1z M124.8,167.9
					c1.9,0.5,3.8,0.7,5.5,0.7c1.3,0,2.2-0.1,2.8-0.2c-0.6-0.1-1.3-0.1-2.2-0.1l0,0C128.6,168.3,126.6,168.1,124.8,167.9L124.8,167.9
					z M131.8,141.9c-1,0-1.3,0.3-1.4,0.5c-0.1,0.2-0.6,0.6-0.6,2c0,0.5,0.1,1.4,0.4,1.8c0.3,0.3,0.9,0.4,1.7,0.4
					c1.1,0,1.4-0.3,1.6-0.5c0.1-0.1,0.5-0.5,0.5-1.8s-0.4-1.7-0.5-1.9C133.2,142.2,132.7,141.9,131.8,141.9L131.8,141.9z
					 M141.8,139.9c0.4,1,0.7,2.1,0.8,3.4v-4.1C142.3,139.5,142.1,139.7,141.8,139.9L141.8,139.9z"/>
				<path class="st0" d="M42.2,163.6c-0.8,0.8-1.8,1.2-2.9,1.2s-2.1-0.4-2.9-1.2c-0.8-0.8-1.2-1.8-1.2-2.9v-23.9
					c0-1.1,0.4-2,1.1-2.7c0.7-0.7,1.6-1.1,2.7-1.1h0.4c1,0,1.8,0.3,2.5,1s1.1,1.5,1.1,2.4v0.4c0,0,0,0.1,0.1,0.1s0.1,0,0.1-0.1
					c2.4-2.9,5.1-4.4,8.1-4.4c1.8,0,3.3,0.3,4.4,1c1.1,0.7,2.1,1.9,3,3.7c0,0,0,0.1,0.1,0.1c0,0,0.1,0,0.1-0.1
					c2.6-3.1,5.5-4.7,8.7-4.7c3.4,0,5.8,0.9,7.3,2.7s2.2,5,2.2,9.5v16.2c0,1.1-0.4,2.1-1.2,2.8c-0.8,0.8-1.7,1.2-2.8,1.2
					c-1.1,0-2-0.4-2.8-1.2s-1.2-1.7-1.2-2.8v-14.9c0-3-0.3-4.9-0.9-5.9c-0.6-0.9-1.7-1.4-3.3-1.4c-1.1,0-2.1,0.5-3.2,1.5
					c-1.1,1-1.6,1.9-1.6,2.9v17.8c0,1.1-0.4,2.1-1.1,2.8c-0.8,0.8-1.7,1.2-2.8,1.2s-2.1-0.4-2.8-1.2c-0.8-0.8-1.2-1.7-1.2-2.8v-14.9
					c0-2.9-0.3-4.9-0.9-5.8s-1.7-1.4-3.3-1.4c-1.1,0-2.1,0.5-3.2,1.5c-1.1,1-1.6,1.9-1.6,2.9v17.7C43.4,161.8,43,162.8,42.2,163.6
					L42.2,163.6z"/>
				<path class="st0" d="M110,161.1c-2.7,2.9-6.5,4.3-11.4,4.3s-8.7-1.4-11.4-4.3c-2.7-2.9-4.1-6.9-4.1-12.2c0-5.2,1.4-9.3,4.1-12.2
					s6.5-4.3,11.4-4.3s8.7,1.4,11.4,4.3c2.7,2.9,4.1,6.9,4.1,12.2C114,154.1,112.7,158.2,110,161.1z M104,140.9
					c-1.2-1.7-3-2.5-5.4-2.5s-4.2,0.8-5.4,2.5c-1.2,1.7-1.8,4.4-1.8,8c0,3.7,0.6,6.3,1.8,8c1.2,1.7,3,2.5,5.4,2.5s4.2-0.8,5.4-2.5
					c1.2-1.7,1.8-4.4,1.8-8C105.8,145.2,105.2,142.6,104,140.9z"/>
				<path class="st0" d="M120.7,152.5c0.2-0.3,0.2-0.6-0.1-1c-2-2-3-4.5-3-7.5c0-3.4,1.1-6.2,3.3-8.4c2.2-2.2,5-3.3,8.5-3.3
					c4,0,7.3,1.3,9.8,4l0.1,0.1c0,0,0.1,0,0.1-0.1V136c0-0.8,0.4-1.5,1-2.1s1.3-0.9,2.1-0.9h0.7c1,0,1.9,0.3,2.6,1
					c0.7,0.7,1,1.6,1,2.6v7.5c0,7.5-4.9,11.2-14.7,11.2c-1.9,0-3.6-0.2-5.2-0.5c-0.5-0.1-0.8,0-1.1,0.4c-0.4,0.5-0.5,0.9-0.5,1.3
					c0,0.7,0.5,1.2,1.4,1.5s2.7,0.5,5.4,0.5c5.3,0,9.1,0.7,11.5,2.2s3.6,3.7,3.6,6.7c0,3.6-1.4,6.4-4.3,8.4c-2.9,2-7,3.1-12.5,3.1
					c-2.9,0-6.1-0.5-9.5-1.4c-1-0.3-1.7-0.8-2.3-1.6c-0.6-0.8-0.8-1.7-0.8-2.7c0-0.8,0.3-1.3,0.9-1.8c0.6-0.4,1.3-0.5,2-0.3
					c3.3,1.2,6.6,1.8,9.7,1.8c2.9,0,5-0.4,6.5-1.3c1.5-0.9,2.2-2.1,2.2-3.6c0-2.7-2.7-4-8.1-4c-4.6,0-7.8-0.5-9.7-1.6
					c-1.9-1.1-2.8-2.7-2.8-4.9C118.4,156.1,119.2,154.4,120.7,152.5L120.7,152.5z M136.5,139.4c-1.2-1.2-2.8-1.8-4.7-1.8
					s-3.4,0.6-4.6,1.8c-1.1,1.2-1.7,2.9-1.7,4.9s0.6,3.7,1.7,4.9c1.1,1.1,2.7,1.7,4.7,1.7c1.9,0,3.5-0.6,4.6-1.8
					c1.2-1.2,1.8-2.8,1.8-4.8C138.3,142.3,137.7,140.6,136.5,139.4L136.5,139.4z"/>
				<path class="st2" d="M161.8,169c-2.3,0-4.4-0.9-6.1-2.5c-1.6-1.6-2.5-3.7-2.5-6.1v-37.2c0-2.3,0.9-4.4,2.5-6.1
					c1.6-1.6,3.7-2.5,6.1-2.5c2.3,0,4.4,0.9,6.1,2.5s2.5,3.7,2.5,6.1v37.2c0,2.3-0.9,4.4-2.5,6.1C166.2,168.2,164.1,169,161.8,169
					L161.8,169z M161.8,160.5L161.8,160.5L161.8,160.5v-37.2l0,0l0,0l0,0V160.5L161.8,160.5z"/>
				<path class="st2" d="M189.7,169.6c-6.1,0-11-1.9-14.5-5.6c-3.5-3.7-5.2-8.8-5.2-15.1s1.8-11.4,5.2-15.1
					c3.5-3.8,8.4-5.7,14.5-5.7s11,1.9,14.5,5.7c3.5,3.7,5.2,8.8,5.2,15.1s-1.8,11.4-5.2,15.1C200.6,167.7,195.8,169.6,189.7,169.6
					L189.7,169.6z M189.6,142.6c-1.4,0-1.7,0.5-1.9,0.7c-0.3,0.4-1,1.8-1,5.6c0,3.7,0.7,5.1,1,5.6c0.2,0.3,0.5,0.7,1.9,0.7
					s1.7-0.5,1.9-0.7c0.3-0.4,1-1.8,1-5.5s-0.7-5.1-1-5.5C191.4,143.1,191,142.6,189.6,142.6L189.6,142.6z"/>
				<path class="st2" d="M221.5,183.1c-3.3,0-6.9-0.5-10.7-1.6l0,0c-1.9-0.5-3.5-1.7-4.6-3.3c-1.1-1.5-1.6-3.3-1.6-5.1
					c0-2.2,1-4.1,2.8-5.3c1.2-0.8,2.6-1.2,4-1.1c-0.4-0.2-0.8-0.3-1.1-0.5c-3.2-1.8-5-4.9-5-8.6c0-1.7,0.5-3.4,1.5-5.2
					c-1.6-2.4-2.4-5.2-2.4-8.3c0-4.6,1.5-8.4,4.6-11.4c3-3,6.9-4.5,11.5-4.5c3.3,0,6.2,0.7,8.8,2.1c1.3-1,2.8-1.5,4.3-1.5h0.7
					c2.2,0,4.1,0.8,5.6,2.3s2.3,3.5,2.3,5.6v7.5c0,6.4-2.9,9.9-5.4,11.8c-0.2,0.2-0.5,0.4-0.8,0.5c0.3,0.2,0.6,0.3,0.9,0.5
					c3.7,2.2,5.6,5.8,5.6,10.3c0,5-2.1,9.1-6.1,11.9C232.8,181.9,227.9,183.1,221.5,183.1L221.5,183.1z M215.9,167.9
					c1.9,0.5,3.8,0.7,5.5,0.7c1.3,0,2.2-0.1,2.8-0.2c-0.6-0.1-1.3-0.1-2.2-0.1l0,0C219.7,168.3,217.7,168.1,215.9,167.9L215.9,167.9
					z M222.8,141.9c-1,0-1.3,0.3-1.4,0.5c-0.1,0.2-0.6,0.6-0.6,2c0,0.5,0.1,1.4,0.4,1.8c0.3,0.3,0.9,0.4,1.7,0.4
					c1.1,0,1.4-0.3,1.6-0.5c0.1-0.1,0.5-0.5,0.5-1.8s-0.4-1.7-0.5-1.9C224.3,142.2,223.8,141.9,222.8,141.9L222.8,141.9z
					 M232.9,139.9c0.4,1,0.7,2.1,0.7,3.5v-4.1C233.4,139.5,233.2,139.7,232.9,139.9L232.9,139.9z"/>
				<path class="st0" d="M164.8,163.5c-0.8,0.8-1.8,1.3-3,1.3s-2.2-0.4-3-1.3c-0.8-0.8-1.3-1.9-1.3-3v-37.2c0-1.2,0.4-2.2,1.3-3
					c0.8-0.8,1.9-1.3,3-1.3s2.2,0.4,3,1.3c0.8,0.8,1.3,1.9,1.3,3v37.2C166.1,161.7,165.7,162.7,164.8,163.5L164.8,163.5z"/>
				<path class="st0" d="M201.1,161.1c-2.7,2.9-6.5,4.3-11.4,4.3s-8.7-1.4-11.4-4.3c-2.7-2.9-4.1-6.9-4.1-12.2
					c0-5.2,1.4-9.3,4.1-12.2c2.7-2.9,6.5-4.3,11.4-4.3s8.7,1.4,11.4,4.3c2.7,2.9,4.1,7,4.1,12.2
					C205.1,154.1,203.8,158.2,201.1,161.1z M195.1,140.9c-1.2-1.7-3-2.5-5.4-2.5s-4.2,0.8-5.4,2.5s-1.8,4.4-1.8,8s0.6,6.3,1.8,8
					s3,2.5,5.4,2.5s4.2-0.8,5.4-2.5s1.8-4.4,1.8-8S196.3,142.6,195.1,140.9z"/>
				<path class="st0" d="M211.7,152.5c0.2-0.3,0.2-0.6-0.1-1c-2-2-3-4.5-3-7.5c0-3.4,1.1-6.2,3.3-8.4s5-3.3,8.5-3.3
					c4,0,7.3,1.3,9.8,4l0.1,0.1c0,0,0.1,0,0.1-0.1V136c0-0.8,0.4-1.5,1-2.1s1.3-0.9,2.1-0.9h0.7c1,0,1.9,0.3,2.6,1
					c0.7,0.7,1,1.6,1,2.6v7.5c0,7.5-4.9,11.2-14.7,11.2c-1.9,0-3.6-0.2-5.2-0.5c-0.5-0.1-0.8,0-1.1,0.4c-0.4,0.5-0.5,0.9-0.5,1.3
					c0,0.7,0.5,1.2,1.4,1.5s2.7,0.5,5.4,0.5c5.3,0,9.1,0.7,11.5,2.2s3.6,3.7,3.6,6.7c0,3.6-1.4,6.4-4.3,8.4c-2.9,2-7,3.1-12.5,3.1
					c-2.9,0-6.1-0.5-9.5-1.4c-1-0.3-1.7-0.8-2.3-1.6s-0.8-1.7-0.8-2.7c0-0.8,0.3-1.3,0.9-1.8c0.6-0.4,1.3-0.5,2-0.3
					c3.3,1.2,6.6,1.8,9.7,1.8c2.9,0,5-0.4,6.5-1.3c1.5-0.9,2.2-2.1,2.2-3.6c0-2.7-2.7-4-8.1-4c-4.6,0-7.8-0.5-9.7-1.6
					s-2.8-2.7-2.8-4.9C209.5,156.1,210.3,154.4,211.7,152.5L211.7,152.5z M227.5,139.4c-1.2-1.2-2.8-1.8-4.7-1.8s-3.4,0.6-4.6,1.8
					c-1.1,1.2-1.7,2.9-1.7,4.9s0.6,3.7,1.7,4.9c1.1,1.1,2.7,1.7,4.7,1.7c1.9,0,3.4-0.6,4.6-1.8c1.2-1.2,1.8-2.8,1.8-4.8
					C229.4,142.3,228.8,140.6,227.5,139.4L227.5,139.4z"/>
				<path class="st0" d="M87.6,129.6c2.7,0,5-2.2,5-5c0-2.7-2.2-5-5-5c-2.7,0-5,2.2-5,5C82.6,127.4,84.9,129.6,87.6,129.6z"/>
				<path class="st0" d="M109.2,129.6c2.7,0,5-2.2,5-5c0-2.7-2.2-5-5-5c-2.7,0-5,2.2-5,5C104.2,127.4,106.4,129.6,109.2,129.6z"/>
				<path class="st0" d="M178.8,129.6c2.7,0,5-2.2,5-5c0-2.7-2.2-5-5-5c-2.7,0-5,2.2-5,5C173.8,127.4,176,129.6,178.8,129.6z"/>
				<path class="st0" d="M200.3,129.6c2.7,0,5-2.2,5-5c0-2.7-2.2-5-5-5c-2.7,0-5,2.2-5,5C195.4,127.4,197.6,129.6,200.3,129.6z"/>
				<path class="st2" d="M133.6,108.8c-1,0-1.9-0.7-2.1-1.7c-0.3-1.2,0.5-2.3,1.6-2.6l8.2-1.9c1.2-0.3,2.3,0.5,2.6,1.6
					c0.3,1.2-0.5,2.3-1.6,2.6l-8.2,1.9C133.9,108.8,133.7,108.8,133.6,108.8L133.6,108.8z"/>
				<path class="st2" d="M129.5,101c-0.6,0-1.2-0.2-1.6-0.7c-0.8-0.9-0.8-2.2,0.1-3l6.2-5.7c0.9-0.8,2.2-0.8,3,0.1s0.8,2.2-0.1,3
					l-6.2,5.7C130.5,100.8,130,101,129.5,101L129.5,101z"/>
				<path class="st2" d="M122,96.3c-0.2,0-0.4,0-0.6-0.1c-1.1-0.3-1.8-1.6-1.4-2.7l2.5-8c0.4-1.1,1.6-1.8,2.7-1.4
					c1.1,0.3,1.8,1.6,1.4,2.7l-2.5,8C123.8,95.7,123,96.3,122,96.3L122,96.3z"/>
			</g>
		</g>
	</g>
</g>
</svg>
