<?xml version="1.0" encoding="utf-8"?>
<!-- Generator: Adobe Illustrator 26.4.1, SVG Export Plug-In . SVG Version: 6.00 Build 0)  -->
<svg version="1.1" id="レイヤー_1" xmlns="http://www.w3.org/2000/svg" xmlns:xlink="http://www.w3.org/1999/xlink" x="0px"
	 y="0px" viewBox="0 0 280 280" style="enable-background:new 0 0 280 280;" xml:space="preserve">
<style type="text/css">
	.st0{fill:#FFFFFF;}
	.st1{fill:#00A8A6;}
	.st2{fill:#A2D6D3;}
	.st3{fill:#00808A;}
</style>
<g>
	<path class="st0" d="M243.2,280H36.8C16.6,280,0,263.4,0,243.2V36.8C0,16.6,16.6,0,36.8,0h206.3C263.4,0,280,16.6,280,36.8v206.3
		C280,263.4,263.4,280,243.2,280z"/>
	<path class="st1" d="M73.1,199h-4.4l2.1-3.6H77V221h-3.9L73.1,199L73.1,199z"/>
	<path class="st1" d="M97,194.5l2.8,2.1l-6.1,8.3c0.3,0,0.6-0.1,0.8-0.1c0.2,0,0.4,0,0.5,0c2.1,0,3.9,0.8,5.4,2.4
		c1.5,1.6,2.3,3.5,2.3,5.7c0,2.3-0.8,4.4-2.5,6c-1.7,1.7-3.7,2.5-6,2.5c-2.3,0-4.4-0.8-6.1-2.5c-1.7-1.7-2.6-3.6-2.6-5.9
		c0-2,0.8-4.2,2.5-6.4L97,194.5L97,194.5z M99,213.2c0-1.4-0.5-2.5-1.4-3.4c-0.9-0.9-2.1-1.4-3.4-1.4c-1.3,0-2.5,0.5-3.4,1.4
		c-0.9,0.9-1.4,2.1-1.4,3.4c0,1.3,0.5,2.5,1.4,3.4c0.9,0.9,2.1,1.4,3.4,1.4s2.5-0.5,3.4-1.4C98.5,215.6,99,214.5,99,213.2L99,213.2z
		"/>
	<path class="st1" d="M110.6,204.9h3.7v1.5c0.7-0.7,1.3-1.3,1.8-1.5c0.5-0.3,1.2-0.4,2-0.4c1.8,0,3.3,0.8,4.3,2.4
		c1.2-1.6,2.8-2.4,4.8-2.4c3.6,0,5.5,2.2,5.5,6.6v10H129v-9c0-1.5-0.2-2.6-0.6-3.3c-0.4-0.7-1-1-1.9-1c-1,0-1.8,0.4-2.3,1.2
		c-0.5,0.8-0.7,2-0.7,3.7v8.3h-3.7v-8.9c0-2.9-0.8-4.3-2.5-4.3c-1,0-1.8,0.4-2.3,1.2c-0.5,0.8-0.7,2-0.7,3.7v8.3h-3.7V204.9
		L110.6,204.9z"/>
	<path class="st1" d="M155.7,213.8h-11.6c0.1,1.3,0.5,2.4,1.3,3.2c0.8,0.8,1.7,1.2,2.9,1.2c0.9,0,1.7-0.2,2.3-0.7
		c0.6-0.4,1.3-1.3,2-2.5l3.2,1.8c-0.5,0.8-1,1.5-1.5,2.1c-0.5,0.6-1.1,1.1-1.7,1.5c-0.6,0.4-1.3,0.7-2,0.8c-0.7,0.2-1.5,0.3-2.3,0.3
		c-2.4,0-4.3-0.8-5.8-2.3c-1.5-1.6-2.2-3.6-2.2-6.2c0-2.6,0.7-4.6,2.1-6.2c1.4-1.6,3.3-2.3,5.7-2.3c2.3,0,4.3,0.8,5.6,2.3
		c1.4,1.5,2.1,3.6,2.1,6.2L155.7,213.8L155.7,213.8z M151.9,210.8c-0.5-2-1.8-3-3.8-3c-0.5,0-0.9,0.1-1.3,0.2
		c-0.4,0.1-0.8,0.3-1.1,0.6c-0.3,0.3-0.6,0.6-0.8,0.9c-0.2,0.4-0.4,0.8-0.5,1.2H151.9L151.9,210.8z"/>
	<path class="st1" d="M163.4,204.9h3.7v1.5c0.7-0.7,1.3-1.3,1.8-1.5c0.5-0.3,1.2-0.4,2-0.4c1.8,0,3.3,0.8,4.3,2.4
		c1.2-1.6,2.8-2.4,4.8-2.4c3.6,0,5.5,2.2,5.5,6.6v10h-3.7v-9c0-1.5-0.2-2.6-0.6-3.3c-0.4-0.7-1-1-1.9-1c-1,0-1.8,0.4-2.3,1.2
		c-0.5,0.8-0.7,2-0.7,3.7v8.3h-3.7v-8.9c0-2.9-0.8-4.3-2.5-4.3c-1,0-1.8,0.4-2.3,1.2c-0.5,0.8-0.7,2-0.7,3.7v8.3h-3.7V204.9
		L163.4,204.9z"/>
	<path class="st1" d="M193.1,212.8c0-2.3,0.8-4.3,2.5-5.9c1.7-1.6,3.7-2.5,6.1-2.5c2.4,0,4.5,0.8,6.1,2.5c1.7,1.6,2.5,3.7,2.5,6.1
		c0,2.4-0.8,4.5-2.5,6.1c-1.7,1.6-3.7,2.4-6.2,2.4c-2.4,0-4.5-0.8-6.1-2.5C193.9,217.4,193.1,215.3,193.1,212.8L193.1,212.8z
		 M196.9,212.9c0,1.6,0.4,2.9,1.3,3.8c0.9,1,2,1.4,3.5,1.4c1.5,0,2.6-0.5,3.5-1.4c0.9-0.9,1.3-2.2,1.3-3.8c0-1.6-0.4-2.8-1.3-3.8
		c-0.9-1-2-1.4-3.5-1.4c-1.5,0-2.6,0.5-3.5,1.4C197.3,210.2,196.9,211.4,196.9,212.9L196.9,212.9z"/>
	<path class="st1" d="M149.9,178.1c5.8,0,10.4-4.7,10.4-10.4c0-5.8-4.7-10.4-10.4-10.4c-5.8,0-10.4,4.7-10.4,10.4
		C139.5,173.4,144.2,178.1,149.9,178.1z"/>
	<path class="st2" d="M129.1,80.4c5.8,0,10.4-4.7,10.4-10.4c0-5.8-4.7-10.4-10.4-10.4c-5.8,0-10.4,4.7-10.4,10.4
		C118.6,75.7,123.3,80.4,129.1,80.4z"/>
	<path class="st1" d="M169.9,107.5l3.3-18.8h-19.4l-3.3,18.8H169.9z"/>
	<path class="st1" d="M169.9,107.5l3.3-18.8h-19.4l-3.3,18.8H169.9z"/>
	<path class="st1" d="M143.3,148.8h19.4L166,130h-19.4L143.3,148.8z"/>
	<path class="st3" d="M186.6,88.8H98.3v18.8h88.3V88.8z"/>
	<path class="st2" d="M120.1,178.1h-19.4l15.7-89.3h19.4L120.1,178.1z"/>
	<path class="st3" d="M180.8,130H92.5v18.8h88.3V130z"/>
	<path class="st1" d="M162.7,148.8h-19.4L159,59.5h19.4L162.7,148.8z"/>
	<path class="st3" d="M170.8,107.5l3.3-18.8H153l-3.3,18.8H170.8z"/>
</g>
</svg>
