<?xml version="1.0" encoding="utf-8"?>
<!-- Generator: Adobe Illustrator 26.4.1, SVG Export Plug-In . SVG Version: 6.00 Build 0)  -->
<svg version="1.1" id="レイヤー_1" xmlns="http://www.w3.org/2000/svg" xmlns:xlink="http://www.w3.org/1999/xlink" x="0px"
	 y="0px" viewBox="0 0 280 280" style="enable-background:new 0 0 280 280;" xml:space="preserve">
<style type="text/css">
	.st0{fill:#FCFCEA;}
	.st1{clip-path:url(#SVGID_00000048490800030826165340000004187986075439123076_);}
	.st2{fill:#1F3D4D;}
	.st3{fill:#BF5B5B;}
	.st4{fill:#FEFCF9;}
	.st5{fill:#B75859;}
	.st6{fill:#E9C052;}
	.st7{fill:#AE7F46;}
	.st8{fill:#464546;}
	.st9{fill:#464646;}
	.st10{fill:#E8D091;}
	.st11{fill:none;stroke:#285B2F;stroke-width:0.3085;stroke-miterlimit:10;}
	.st12{fill:#2D4A5D;}
</style>
<g>
	<path class="st0" d="M243.2,280H36.8C16.6,280,0,263.4,0,243.2V36.8C0,16.6,16.6,0,36.8,0h206.3C263.4,0,280,16.6,280,36.8v206.3
		C280,263.4,263.4,280,243.2,280z"/>
	<g>
		<defs>
			<rect id="SVGID_1_" x="18" y="77" width="244.2" height="126.2"/>
		</defs>
		<clipPath id="SVGID_00000163035949593669690360000012720973314653420697_">
			<use xlink:href="#SVGID_1_"  style="overflow:visible;"/>
		</clipPath>
		<g style="clip-path:url(#SVGID_00000163035949593669690360000012720973314653420697_);">
			<path class="st0" d="M54.8,88.5C24.9,90.4,18,105,18,112.5c1,25.3,35,24.3,35,24.3s-6.8,12.9-3.3,25.3
				c5.3,15.1,22.9,17.9,22.9,17.9s-1.5,8.6,3.9,15c8.7,9.3,23.6,9.1,32.8,7.2c9.3-1.9,16-9.5,16-9.5c16.4,5.1,41.1,2.9,69.3-2.5
				c1.9,5.2,5.7,8.2,9.9,10c7.8,3,20.8,5.1,31.8-0.2c11-5.3,14.8-22.8,14.8-22.8c3.3-13.2,3.6-26.9-0.7-38.4
				c0,0,10.8-11.9,11.7-30.9c0-13.6-14.9-19.6-23.9-10c-9,9.6-8.4,17.3-14.4,19.9c-52.7-14.3-68.6,0.9-92-1.5
				c-1.8-20.2-12.2-30-25.9-32.1C97.4,75.2,64.4,72.6,54.8,88.5z"/>
			<path class="st2" d="M100.9,97c-23-20.4-43.4,2.3-43.4,2.3s-29.3-2.2-27.9,13.2c1.8,19.3,37.9,11.2,38.2,12.4
				c-9,36.8,23.4,47.5,23.4,47.5s2.2,1.4,1.3,6.4c-6.2,6.3,0.3,10.1,0.3,10.1h12.6c0,0,5.1-1.4,3.4-11.4
				c40.6,12.8,103.6-6.8,103.6-6.8s2.7,2.9,1.9,7.8c-6,4.9-1.7,10.4-1.7,10.4h14.5c5.5-3,3.1-10.3,2.9-11.1
				c14-19.7,10.8-32.4,4.1-40.2c-0.4-0.5,7-5.8,11.4-13.5c5.5-9.5,8.2-19.1,2.7-19.3c-4.2-0.1-5.6,7.6-9.3,14.2
				c-4.2,7.4-10.8,13.2-11.4,12.8c-4.9-3.3-9.5-4.7-9.7-4.8c-23.6-9-38.9-4.1-65.3-0.5c-26.4,3.6-39.4-3-39.1-3.9
				C115.2,121.2,121.1,106.7,100.9,97L100.9,97z"/>
			<path class="st3" d="M115.2,151.6c0.7,0.3,1.2,0.7,1.5,1.3c0.3,0.6,0.3,1.3,0,1.9c-1.1,2.3-2.3,4.1-3.8,5.3
				c-1.5,1.3-2.9,1.9-4.2,1.9c-1.8,0-3.5-1.2-5.1-3.5c-1.6-2.4-2.4-5.3-2.4-8.7c0-2.7,0.3-5.5,1-8.3c0.2-0.7,0.6-1.3,1.2-1.7
				c0.6-0.4,1.3-0.6,2-0.5l0.4,0.1c0.7,0.1,1.2,0.4,1.6,0.9c0.4,0.5,0.5,1.1,0.4,1.8c-0.6,2.9-0.9,5.4-0.9,7.7
				c0,0.9,0.1,1.8,0.2,2.7c0.1,0.8,0.3,1.5,0.6,2.1c0.2,0.5,0.5,1,0.7,1.3c0.2,0.3,0.5,0.5,0.7,0.5c0.3,0,0.7-0.3,1.2-0.8
				c0.5-0.6,1-1.4,1.5-2.5c0.3-0.6,0.8-1.1,1.5-1.4C113.9,151.3,114.5,151.3,115.2,151.6L115.2,151.6z"/>
			<path class="st4" d="M108.6,162.6c-2,0-3.9-1.3-5.6-3.8c-1.6-2.5-2.5-5.5-2.5-9c0-2.8,0.3-5.6,1-8.4c0.2-0.9,0.7-1.6,1.4-2.1
				c0.7-0.5,1.6-0.7,2.4-0.6l0.5,0.1c0.8,0.1,1.5,0.5,2,1.2c0.5,0.7,0.6,1.5,0.5,2.3c-0.6,2.8-0.9,5.4-0.9,7.5
				c0,0.9,0.1,1.8,0.2,2.6c0.1,0.8,0.3,1.4,0.5,1.9c0.2,0.5,0.4,0.9,0.7,1.2c0.1,0.2,0.2,0.2,0.2,0.2c0.1,0,0.3-0.2,0.7-0.6
				c0.4-0.5,0.9-1.3,1.4-2.3c0.4-0.8,1-1.3,1.8-1.7c0.8-0.4,1.6-0.4,2.4-0.1c0.8,0.3,1.4,0.9,1.8,1.6c0.4,0.8,0.4,1.6,0,2.4
				c-1.1,2.3-2.4,4.2-3.9,5.5C111.7,161.9,110.1,162.6,108.6,162.6L108.6,162.6z M105,139.9c-0.5,0-0.9,0.1-1.3,0.4
				c-0.5,0.3-0.8,0.7-0.9,1.3c-0.6,2.7-0.9,5.5-0.9,8.1c0,3.3,0.8,6.1,2.3,8.3c1.4,2.2,3,3.3,4.6,3.3c1.2,0,2.5-0.6,3.8-1.7
				c1.4-1.2,2.6-2.9,3.6-5.1c0.2-0.5,0.2-0.9,0-1.4c-0.2-0.5-0.6-0.8-1.1-1h0c-0.5-0.2-1-0.2-1.5,0c-0.5,0.2-0.9,0.6-1.2,1.1
				c-0.6,1.1-1.1,2-1.6,2.6c-0.6,0.7-1.1,1.1-1.6,1.1c-0.4,0-0.8-0.2-1.2-0.7c-0.3-0.4-0.5-0.9-0.8-1.4c-0.3-0.6-0.5-1.3-0.6-2.2
				c-0.2-0.9-0.2-1.8-0.2-2.8c0-2.3,0.3-4.9,0.9-7.8c0.1-0.5,0-0.9-0.3-1.3c-0.3-0.4-0.6-0.6-1.1-0.7l-0.5-0.1
				C105.2,139.9,105.1,139.9,105,139.9L105,139.9z"/>
			<path class="st5" d="M152.5,162.5c0.7,0,1.3,0.1,1.8,0.5c0.6,0.4,0.9,0.9,1,1.5c0.1,0.7,0,1.3-0.4,1.9c-0.4,0.6-0.9,0.9-1.6,1
				c-0.9,0.1-1.7,0.1-2.4,0.1c-2,0-3.6-0.3-4.6-0.9c-1-0.6-1.7-1.5-2-2.7c-0.2-0.8-0.4-1.3-0.5-1.6c-0.2-0.3-0.4-0.4-0.7-0.4
				c-0.2,0-0.7,0.2-1.4,0.6c-0.7,0.4-2.7,1.7-6,3.9c-0.6,0.4-1.2,0.5-1.9,0.4c-0.7-0.1-1.2-0.5-1.7-1.1l-0.1-0.1
				c-0.4-0.6-0.5-1.2-0.4-1.9c0.1-0.7,0.5-1.2,1.1-1.6l12.6-8.1c0,0,0,0,0,0c0,0,0,0,0,0h-9.9c-0.7,0-1.2-0.2-1.7-0.7
				c-0.5-0.5-0.7-1-0.7-1.7c0-0.7,0.2-1.2,0.7-1.7c0.5-0.5,1-0.7,1.7-0.7h15c0.7,0,1.3,0.2,1.8,0.7c0.5,0.5,0.7,1.1,0.7,1.8v0.5
				c0,1.7-0.7,3-2.1,3.9l-3.4,2.2l0,0c0.3,0,0.6,0.2,0.9,0.6c0.3,0.4,0.5,0.9,0.7,1.5c0.2,0.9,0.4,1.4,0.7,1.6
				c0.3,0.2,0.8,0.3,1.7,0.3C152,162.5,152.3,162.5,152.5,162.5L152.5,162.5z"/>
			<path class="st4" d="M151.1,168c-2.2,0-3.8-0.3-4.9-0.9c-1.2-0.7-1.9-1.7-2.3-3.1c-0.2-1-0.4-1.3-0.5-1.5
				c-0.1-0.1-0.1-0.1-0.1-0.1c0,0-0.3,0-1.1,0.5c-0.7,0.4-2.7,1.7-6,3.9c-0.7,0.5-1.5,0.7-2.4,0.5c-0.8-0.2-1.5-0.6-2-1.3l-0.1-0.1
				c-0.5-0.7-0.7-1.5-0.5-2.3c0.2-0.8,0.6-1.5,1.3-1.9l10.9-7h-8c-0.8,0-1.5-0.3-2.1-0.9c-0.6-0.6-0.9-1.3-0.9-2.1s0.3-1.5,0.9-2.1
				c0.6-0.6,1.3-0.9,2.1-0.9h15c0.9,0,1.6,0.3,2.2,0.9c0.6,0.6,0.9,1.4,0.9,2.2v0.5c0,1.9-0.8,3.4-2.4,4.4l-2.5,1.7
				c0.1,0.1,0.2,0.2,0.2,0.3c0.4,0.5,0.6,1.1,0.8,1.8c0.2,1,0.5,1.2,0.5,1.3c0,0,0.3,0.2,1.3,0.2c0.4,0,0.6,0,0.8,0h0
				c0.8-0.1,1.6,0.1,2.2,0.6c0.7,0.5,1.1,1.1,1.3,1.9c0.2,0.8,0,1.6-0.5,2.3c-0.5,0.7-1.2,1.1-2,1.2C152.6,168,151.8,168,151.1,168
				L151.1,168z M143.3,161.1c0.3,0,0.8,0.1,1.2,0.7c0.2,0.4,0.4,0.9,0.6,1.8c0.2,1.1,0.8,1.8,1.7,2.3c0.9,0.5,2.4,0.8,4.3,0.8
				c0.6,0,1.4,0,2.3-0.1c0.5-0.1,0.8-0.3,1.1-0.7c0.3-0.4,0.4-0.9,0.3-1.4c-0.1-0.5-0.3-0.8-0.7-1.1c-0.4-0.3-0.9-0.4-1.5-0.4
				c-0.2,0-0.5,0-0.9,0c-1,0-1.7-0.1-2.1-0.5c-0.4-0.3-0.7-0.9-0.9-1.9c-0.1-0.5-0.3-1-0.6-1.3c-0.3-0.3-0.4-0.4-0.4-0.4h-0.3
				l-0.7-0.7l4-2.6c1.2-0.8,1.8-1.9,1.8-3.4v-0.5c0-0.5-0.2-1-0.6-1.4c-0.4-0.4-0.8-0.6-1.4-0.6h-15c-0.5,0-0.9,0.2-1.2,0.5
				c-0.3,0.3-0.5,0.8-0.5,1.2c0,0.5,0.2,0.9,0.5,1.2c0.3,0.4,0.8,0.5,1.2,0.5h9.9c0.4,0,0.6,0.3,0.6,0.6c0,0.3-0.2,0.5-0.4,0.6
				l-12.5,8.1c-0.4,0.3-0.7,0.7-0.8,1.2c-0.1,0.5,0,0.9,0.3,1.3l0.1,0.1c0.3,0.4,0.7,0.7,1.3,0.8c0.5,0.1,1,0,1.4-0.3
				c3.4-2.3,5.4-3.6,6.1-4C142.7,161.2,143.1,161.1,143.3,161.1L143.3,161.1z"/>
			<path class="st3" d="M219.4,155.8l0.6,0.8c0.4,0.5,0.5,1.1,0.4,1.7c-0.1,0.6-0.4,1.2-0.9,1.5l-0.7,0.5c-0.3,0.2-0.6,0.3-1,0.3
				c-0.4,0-0.7-0.2-0.9-0.5c-0.1-0.1-0.2-0.1-0.2,0c-1.3,1.3-2.7,1.9-4.3,1.9c-1.6,0-2.8-0.5-3.8-1.4c-1-0.9-1.5-2.2-1.5-3.6
				s0.5-2.6,1.6-3.6c1.1-1,2.4-1.5,4.1-1.5c0.5,0,1,0,1.5,0.1c0.2,0,0.3-0.1,0.3-0.3v-1c0-1-0.3-1.9-0.8-2.8
				c-0.5-0.9-1.3-1.6-2.2-2.1c-0.2-0.1-0.3-0.1-0.4,0.2c-2,5-4,8.8-6.1,11.4c-2.1,2.5-4,3.8-5.7,3.8c-1.8,0-3.2-0.7-4.3-2.2
				c-1.1-1.5-1.6-3.6-1.6-6.4c0-3.6,1.3-6.5,3.8-9c0.2-0.2,0.2-0.3,0.2-0.5c-0.2-0.6-0.4-1.5-0.7-2.7c-0.2-0.6-0.1-1.2,0.3-1.8
				c0.4-0.6,0.9-0.9,1.5-1.1c0.7-0.1,1.3,0,1.8,0.3c0.6,0.4,0.9,0.9,1.1,1.5c0,0.1,0.1,0.3,0.2,0.6c0.1,0.3,0.1,0.4,0.2,0.6
				c0,0.2,0.2,0.3,0.4,0.2c1.6-0.6,3.4-0.9,5.3-0.9h0.3c0.2,0,0.4-0.1,0.4-0.3c0-0.1,0.1-0.3,0.2-0.5c0.1-0.2,0.1-0.4,0.2-0.5
				c0.2-0.7,0.6-1.2,1.2-1.6c0.6-0.4,1.3-0.5,2-0.4h0.1c0.7,0.1,1.2,0.5,1.5,1c0.3,0.6,0.4,1.2,0.2,1.8c-0.2,0.5-0.3,0.9-0.4,1.1
				c-0.1,0.2,0,0.4,0.2,0.5c2,0.9,3.7,2.2,4.8,3.9c1.2,1.7,1.8,3.7,1.8,5.9c0,1.7-0.2,3.2-0.5,4.5
				C219.2,155.5,219.3,155.7,219.4,155.8L219.4,155.8z M199.3,155.8c0.3,0,0.8-0.4,1.5-1.2c0.1-0.1,0.1-0.3,0.1-0.5
				c-0.3-0.7-0.8-2.2-1.6-4.5c0-0.1-0.1-0.1-0.1-0.1c-0.1,0-0.1,0-0.1,0.1c-0.4,0.9-0.6,1.9-0.6,2.9c0,0.7,0,1.3,0.2,1.8
				s0.2,0.9,0.3,1.1C199,155.7,199.1,155.8,199.3,155.8L199.3,155.8z M205.9,145.2c0-0.1,0-0.2,0-0.2c0-0.1-0.1-0.1-0.2-0.1
				c-0.9,0.1-1.7,0.3-2.3,0.6c-0.2,0.1-0.3,0.2-0.2,0.5c0.3,1,0.6,1.9,0.8,2.7c0,0.1,0.1,0.1,0.1,0.1c0.1,0,0.1,0,0.2-0.1
				C204.8,147.6,205.4,146.4,205.9,145.2L205.9,145.2z M213.8,156.9c0.1-0.2,0.1-0.4-0.1-0.5c-0.3-0.2-0.6-0.4-1-0.4
				c-0.3,0-0.6,0.1-0.8,0.3c-0.2,0.2-0.4,0.5-0.4,0.7c0,0.3,0.1,0.5,0.3,0.6c0.2,0.2,0.4,0.3,0.6,0.3
				C213,157.9,213.5,157.5,213.8,156.9L213.8,156.9z"/>
			<path class="st4" d="M212.4,162.7c-1.7,0-3.1-0.5-4.3-1.6c-1.1-1.1-1.7-2.4-1.7-4.1c0-0.2,0-0.4,0-0.6c-0.3,0.5-0.7,0.9-1,1.3
				c-2.2,2.7-4.2,4-6.1,4c-1.9,0-3.6-0.8-4.8-2.5c-1.2-1.6-1.8-3.9-1.8-6.8c0-3.7,1.3-6.9,4-9.4c-0.2-0.6-0.4-1.5-0.7-2.7
				c-0.2-0.8-0.1-1.6,0.4-2.3c0.4-0.7,1.1-1.2,1.9-1.4c0.8-0.2,1.6,0,2.3,0.4c0.7,0.4,1.2,1.1,1.4,1.9l0,0c0,0.1,0,0.2,0.1,0.5
				c0,0.1,0.1,0.2,0.1,0.3c1.6-0.5,3.3-0.8,5.2-0.8h0.2c0-0.1,0-0.1,0.1-0.2l0-0.1c0.1-0.2,0.1-0.4,0.2-0.5c0.3-0.8,0.8-1.5,1.5-1.9
				c0.7-0.4,1.5-0.6,2.4-0.5l0.1,0c0.9,0.1,1.5,0.6,2,1.3c0.4,0.7,0.5,1.5,0.3,2.3c-0.1,0.4-0.2,0.7-0.3,1c2,0.9,3.7,2.3,4.9,4.1
				c1.2,1.8,1.9,3.9,1.9,6.2c0,1.7-0.2,3.3-0.6,4.7c0,0,0,0,0,0l0.6,0.8c0.5,0.7,0.7,1.4,0.6,2.2c-0.1,0.8-0.5,1.5-1.1,1.9l-0.7,0.5
				c-0.4,0.3-0.9,0.5-1.4,0.4c-0.4,0-0.7-0.2-1-0.4C215.5,162.1,214,162.7,212.4,162.7L212.4,162.7z M212.7,152.6
				c-1.5,0-2.7,0.4-3.7,1.3c-0.9,0.9-1.4,1.9-1.4,3.2c0,1.3,0.4,2.4,1.3,3.2c0.9,0.8,2,1.2,3.4,1.2c1.4,0,2.7-0.6,3.9-1.7
				c0.2-0.2,0.4-0.2,0.6-0.2c0.2,0,0.4,0.1,0.6,0.3c0.1,0.2,0.3,0.3,0.5,0.3c0.2,0,0.4,0,0.6-0.2l0.7-0.5c0.4-0.3,0.6-0.7,0.7-1.1
				c0.1-0.5,0-0.9-0.3-1.3l-0.6-0.8c-0.2-0.2-0.3-0.6-0.2-1.1c0.3-1.3,0.5-2.8,0.5-4.4c0-2-0.6-3.9-1.7-5.5
				c-1.1-1.6-2.6-2.9-4.6-3.7c-0.5-0.3-0.7-0.7-0.5-1.2c0.1-0.2,0.2-0.6,0.3-1.1c0.1-0.5,0.1-0.9-0.2-1.3c-0.2-0.4-0.6-0.6-1.1-0.7
				l-0.1,0c-0.6-0.1-1.1,0-1.6,0.3c-0.5,0.3-0.8,0.7-1,1.3l0,0c0,0.1-0.1,0.2-0.2,0.4l0,0.1c0,0.2-0.1,0.3-0.1,0.4
				c-0.1,0.4-0.5,0.7-1,0.7h-0.3c-1.8,0-3.5,0.3-5.1,0.8c-0.4,0.1-0.6,0-0.8,0c-0.2-0.1-0.4-0.3-0.4-0.6c0-0.1,0-0.2-0.1-0.5
				c-0.1-0.3-0.1-0.5-0.2-0.6c-0.1-0.5-0.4-0.9-0.8-1.1c-0.4-0.3-0.9-0.4-1.4-0.2c-0.5,0.1-0.9,0.4-1.1,0.8
				c-0.3,0.4-0.3,0.9-0.2,1.3c0.3,1.2,0.6,2.1,0.7,2.7c0.1,0.4,0,0.8-0.3,1.1c-2.4,2.3-3.6,5.2-3.6,8.5c0,2.7,0.5,4.7,1.5,6.1
				c1,1.3,2.2,2,3.8,2c1.5,0,3.2-1.2,5.2-3.6c2-2.5,4.1-6.2,6-11.2c0.1-0.3,0.4-0.5,0.5-0.6c0.2-0.1,0.4-0.1,0.8,0.1
				c1,0.6,1.8,1.4,2.4,2.3c0.6,0.9,0.9,2,0.9,3.1v1c0,0.4-0.2,0.6-0.3,0.7c-0.1,0.1-0.4,0.2-0.7,0.2
				C213.7,152.6,213.2,152.6,212.7,152.6L212.7,152.6z M211.5,146.6c-0.9,2.2-1.7,4.1-2.6,5.8c1.1-0.7,2.3-1.1,3.8-1.1
				c0.4,0,0.8,0,1.2,0.1v-0.6c0-0.9-0.2-1.7-0.7-2.4C212.7,147.6,212.2,147.1,211.5,146.6L211.5,146.6z M212.4,158.5
				c-0.4,0-0.8-0.2-1.1-0.4c-0.3-0.3-0.4-0.7-0.4-1.1c0-0.5,0.2-0.9,0.6-1.2c0.4-0.3,0.8-0.5,1.2-0.5c0.6,0,1,0.2,1.4,0.5
				c0.4,0.3,0.5,0.8,0.2,1.3C213.8,158.3,213,158.5,212.4,158.5L212.4,158.5z M212.7,156.6c-0.2,0-0.3,0-0.4,0.2
				c-0.2,0.1-0.2,0.2-0.2,0.3c0,0.1,0,0.2,0.1,0.2c0,0,0.1,0.1,0.2,0.1c0.2,0,0.6-0.1,0.8-0.6C213.1,156.6,212.9,156.6,212.7,156.6
				L212.7,156.6z M199.3,156.4c-0.3,0-0.6-0.1-0.9-0.7c-0.2-0.3-0.3-0.7-0.4-1.3c-0.1-0.6-0.2-1.2-0.2-1.9c0-1.1,0.2-2.2,0.6-3.2
				l0.1-0.1c0.1-0.2,0.3-0.3,0.6-0.4c0.4-0.1,0.7,0.1,0.8,0.5c0.8,2.4,1.3,3.8,1.5,4.5c0.2,0.6,0,1-0.2,1.2
				C200.4,156,199.8,156.4,199.3,156.4L199.3,156.4z M199.1,151.2c-0.1,0.4-0.1,0.9-0.1,1.4c0,0.6,0,1.2,0.1,1.7
				c0.1,0.5,0.2,0.8,0.3,0.9c0.1-0.1,0.4-0.3,0.8-0.8C200,153.8,199.7,152.8,199.1,151.2L199.1,151.2z M204.1,149.4
				c-0.3,0-0.6-0.2-0.7-0.5c-0.3-0.8-0.5-1.7-0.8-2.8c-0.1-0.3-0.1-0.6,0-0.8c0.1-0.1,0.2-0.3,0.5-0.4c0.7-0.3,1.5-0.5,2.4-0.6
				c0.3-0.1,0.6,0.1,0.8,0.3c0.2,0.2,0.2,0.5,0.1,0.8c-0.5,1.2-1,2.4-1.6,3.6l0,0.1C204.6,149.3,204.4,149.4,204.1,149.4
				L204.1,149.4z M203.8,146c0.1,0.5,0.3,1,0.4,1.4c0.3-0.6,0.5-1.1,0.8-1.7C204.6,145.8,204.2,145.9,203.8,146L203.8,146z"/>
			<path class="st3" d="M122.3,144.3l-1.2,0.3c-1.4,0.4-2.2,1.8-1.8,3.1l0.7,2.5c0.4,1.4,1.8,2.2,3.1,1.8l1.2-0.3
				c1.4-0.4,2.2-1.8,1.8-3.1l-0.7-2.5C125.1,144.7,123.7,143.9,122.3,144.3z"/>
			<path class="st4" d="M122.5,152.7c-0.6,0-1.1-0.1-1.6-0.4c-0.7-0.4-1.3-1.1-1.5-1.9l-0.7-2.5c-0.2-0.8-0.1-1.7,0.3-2.4
				c0.4-0.7,1.1-1.3,1.9-1.5l1.2-0.3c0.8-0.2,1.7-0.1,2.4,0.3c0.7,0.4,1.3,1.1,1.5,1.9l0.7,2.5c0.2,0.8,0.1,1.7-0.3,2.4
				c-0.4,0.7-1.1,1.3-1.9,1.5l-1.2,0.3C123.1,152.7,122.8,152.7,122.5,152.7L122.5,152.7z M123,144.8c-0.2,0-0.3,0-0.5,0.1l-1.2,0.3
				c-1,0.3-1.7,1.4-1.4,2.4l0.7,2.5c0.1,0.5,0.5,0.9,0.9,1.2s1,0.3,1.5,0.2l1.2-0.3c0.5-0.1,0.9-0.5,1.2-0.9c0.3-0.5,0.3-1,0.2-1.5
				l-0.7-2.5c-0.1-0.5-0.5-0.9-0.9-1.2C123.7,144.9,123.3,144.8,123,144.8z"/>
			<path class="st3" d="M139.8,142.8v1.2c0,1.4,1.2,2.6,2.6,2.6h2.6c1.4,0,2.6-1.1,2.6-2.6v-1.2c0-1.4-1.1-2.6-2.6-2.6h-2.6
				C140.9,140.2,139.8,141.4,139.8,142.8z"/>
			<path class="st4" d="M144.9,147.2h-2.6c-1.8,0-3.2-1.4-3.2-3.2v-1.2c0-1.8,1.4-3.2,3.2-3.2h2.6c1.8,0,3.2,1.4,3.2,3.2v1.2
				C148.1,145.7,146.7,147.2,144.9,147.2z M142.3,140.8c-1.1,0-2,0.9-2,2v1.2c0,1.1,0.9,2,2,2h2.6c1.1,0,2-0.9,2-2v-1.2
				c0-1.1-0.9-2-2-2H142.3z"/>
			<path class="st3" d="M175.9,155c0.7,0.3,1.2,0.7,1.5,1.3c0.3,0.6,0.3,1.3,0,1.9c-1.1,2.3-2.3,4.1-3.8,5.3
				c-1.5,1.3-2.9,1.9-4.2,1.9c-1.8,0-3.5-1.2-5.1-3.5c-1.6-2.4-2.4-5.3-2.4-8.7c0-2.7,0.3-5.5,1-8.3c0.2-0.7,0.6-1.3,1.2-1.7
				c0.6-0.4,1.3-0.6,2-0.5l0.4,0.1c0.7,0.1,1.2,0.4,1.6,0.9s0.5,1.1,0.4,1.8c-0.6,2.9-0.9,5.4-0.9,7.7c0,0.9,0.1,1.8,0.2,2.7
				c0.2,0.8,0.3,1.5,0.6,2.1c0.2,0.5,0.5,1,0.7,1.3c0.2,0.3,0.5,0.5,0.7,0.5c0.3,0,0.7-0.3,1.2-0.8c0.5-0.6,1-1.4,1.5-2.5
				c0.3-0.6,0.8-1.1,1.5-1.4C174.6,154.8,175.3,154.7,175.9,155L175.9,155z"/>
			<path class="st4" d="M169.4,166c-2,0-3.9-1.3-5.6-3.8c-1.6-2.5-2.5-5.5-2.5-9c0-2.8,0.3-5.6,1-8.4c0.2-0.9,0.7-1.6,1.4-2.1
				c0.7-0.5,1.6-0.7,2.4-0.6l0.5,0.1c0.8,0.1,1.5,0.5,2,1.2c0.5,0.7,0.6,1.5,0.5,2.3c-0.6,2.8-0.9,5.4-0.9,7.5
				c0,0.9,0.1,1.8,0.2,2.6c0.1,0.8,0.3,1.4,0.5,1.9c0.2,0.5,0.4,0.9,0.7,1.2c0.1,0.2,0.2,0.2,0.2,0.2c0.1,0,0.3-0.2,0.7-0.6
				c0.4-0.5,0.9-1.3,1.4-2.3c0.4-0.8,1-1.3,1.8-1.7c0.8-0.4,1.6-0.4,2.4-0.1c0.8,0.3,1.4,0.9,1.8,1.6c0.4,0.8,0.4,1.6,0,2.4
				c-1.1,2.4-2.4,4.2-3.9,5.5C172.4,165.3,170.9,166,169.4,166L169.4,166z M165.7,143.3c-0.5,0-0.9,0.1-1.3,0.4
				c-0.5,0.3-0.8,0.7-0.9,1.3c-0.6,2.7-0.9,5.5-0.9,8.1c0,3.3,0.8,6.1,2.3,8.3c1.4,2.2,3,3.3,4.6,3.3c1.2,0,2.5-0.6,3.8-1.7
				c1.4-1.2,2.6-2.9,3.6-5.1c0.2-0.5,0.2-0.9,0-1.4c-0.2-0.5-0.6-0.8-1.1-1h0c-0.5-0.2-1-0.2-1.5,0c-0.5,0.2-0.9,0.6-1.2,1.1
				c-0.6,1.1-1.1,2-1.6,2.6c-0.6,0.7-1.1,1.1-1.6,1.1c-0.4,0-0.8-0.2-1.2-0.7c-0.3-0.4-0.6-0.9-0.8-1.4c-0.3-0.6-0.5-1.3-0.6-2.2
				c-0.2-0.9-0.2-1.8-0.2-2.8c0-2.3,0.3-4.9,0.9-7.8c0.1-0.5,0-0.9-0.3-1.3c-0.3-0.4-0.6-0.6-1.1-0.7l-0.5-0.1
				C165.9,143.4,165.8,143.3,165.7,143.3L165.7,143.3z"/>
			<path class="st3" d="M183.1,147.7l-1.2,0.3c-1.4,0.4-2.2,1.8-1.8,3.1l0.7,2.5c0.4,1.4,1.8,2.2,3.1,1.8l1.2-0.3
				c1.4-0.4,2.2-1.8,1.8-3.1l-0.7-2.5C185.8,148.1,184.4,147.3,183.1,147.7z"/>
			<path class="st4" d="M183.2,156.2c-0.5,0-1.1-0.1-1.6-0.4c-0.7-0.4-1.3-1.1-1.5-1.9l-0.7-2.5c-0.2-0.8-0.1-1.7,0.3-2.4
				c0.4-0.7,1.1-1.3,1.9-1.5l1.2-0.3c1.7-0.4,3.4,0.6,3.9,2.3l0.7,2.5c0.2,0.8,0.1,1.7-0.3,2.4c-0.4,0.7-1.1,1.3-1.9,1.5l-1.2,0.3
				C183.8,156.1,183.5,156.2,183.2,156.2L183.2,156.2z M183.7,148.2c-0.2,0-0.3,0-0.5,0.1l-1.2,0.3c-0.5,0.1-0.9,0.5-1.2,0.9
				c-0.3,0.5-0.3,1-0.2,1.5l0.7,2.5c0.1,0.5,0.5,0.9,0.9,1.2s1,0.3,1.5,0.2l1.2-0.3c0.5-0.1,0.9-0.5,1.2-0.9s0.3-1,0.2-1.5l-0.7-2.5
				C185.4,148.8,184.6,148.2,183.7,148.2L183.7,148.2z"/>
			<path class="st6" d="M90.4,178.5c0,0-5.9,2.1-5.9,5.5c0,6.1,7,6.1,7,6.1h15.8c5-2.3,4.1-9.1,3.5-9.5c-0.5-0.5-19.8-5.9-20.2-5.6
				C90.4,175.1,90.4,178.5,90.4,178.5z"/>
			<path class="st7" d="M91.5,190.7c-0.2,0-3.7,0-5.8-2.2c-1.2-1.1-1.7-2.7-1.7-4.5c0-3.2,4.5-5.3,5.9-5.9c0-3.2,0.2-3.3,0.4-3.5
				c0.3-0.2,0.6-0.5,10.7,2.3c6.2,1.7,9.7,2.8,10.3,3.2v0c0.6,0.5,0.8,2.5,0.6,4.1c-0.2,1.8-1,4.9-4.3,6.4l-0.1,0.1L91.5,190.7
				L91.5,190.7z M91.1,175.7c0,0.6-0.1,1.8-0.1,2.8v0.4l-0.4,0.1c-1.5,0.6-5.5,2.5-5.5,4.9c0,1.5,0.5,2.7,1.4,3.6
				c1.9,1.9,5,1.8,5,1.8h15.6c1.5-0.7,2.6-2,3.1-3.8c0.6-2.1,0.3-4.2,0.1-4.6C108.8,180.3,94,176.2,91.1,175.7L91.1,175.7z"/>
			<path class="st8" d="M92.5,180.2l-3-0.9c0,0,0,0,0,0l0,0.1c0,0,0,0,0,0l3,0.9C92.4,180.4,92.4,180.4,92.5,180.2L92.5,180.2
				C92.5,180.3,92.5,180.3,92.5,180.2z"/>
			<path class="st9" d="M92.9,181.1l-0.6-0.1l-3.6-1l0.3-1.3l0.6,0.1l3.6,1l-0.2,0.7L92.9,181.1z"/>
			<path class="st8" d="M89.9,181.7l-3-0.9c0,0,0,0,0,0l0,0.1c0,0,0,0,0,0l3,0.9C89.9,181.8,89.9,181.8,89.9,181.7L89.9,181.7
				C89.9,181.7,89.9,181.7,89.9,181.7z"/>
			<path class="st9" d="M90.3,182.6l-0.6-0.2l-3.6-1l0.4-1.3l0.6,0.2l3.6,1l-0.2,0.7L90.3,182.6z"/>
			<path class="st10" d="M61.8,145.3c-0.2,0.1-2.2,0.9-2.7,1.2c-0.6,0.4-1,0.8-1.1,1.5c0,1.1,0.1,12.2,0.1,12.4c0,1,0.4,1.2,1,1.4
				c0.2,0,15.6,3.9,15.7,3.9c1.1,0.1,1.4,0,2.2-0.3c0.3-0.1,2.5-1.2,2.5-1.2c0.5-0.3,0.8-0.8,0.8-1.6l0-12.5
				c-0.1-0.7-0.4-0.9-1.5-1.3c0,0-15.2-3.8-15.4-3.8C63,145.1,62.4,145.1,61.8,145.3L61.8,145.3z"/>
			<path class="st7" d="M75.6,166.4c-0.2,0-0.5,0-0.8,0v0c-0.4-0.1-2.5-0.6-15.4-3.8l-0.5-0.1c-0.7-0.2-1.4-0.6-1.4-2
				c0-0.1,0-3.1-0.1-10.8l0-1.6v0c0.1-1.1,0.7-1.6,1.3-2c0.4-0.3,1.7-0.8,2.8-1.3l0,0c0.6-0.2,1.2-0.3,1.9-0.2
				c0.2,0,1.8,0.4,15.5,3.8c1.1,0.3,1.8,0.6,2,1.8l0,0.1l0,12.5c0,1.2-0.6,1.8-1.1,2.1l-0.1,0l-2.6,1.2
				C76.6,166.3,76.2,166.4,75.6,166.4L75.6,166.4z M74.9,165.1c1,0.1,1.3,0,1.9-0.2l2.5-1.1c0.2-0.1,0.5-0.4,0.5-1l0-12.5
				c0-0.3-0.1-0.4-1.1-0.7c-5.9-1.5-14.8-3.7-15.3-3.8c-0.5-0.1-0.9,0-1.3,0.1l0,0c-1.3,0.5-2.3,1-2.5,1.2c-0.6,0.4-0.8,0.6-0.8,1.1
				l0,1.5c0,3.2,0.1,10.6,0.1,10.8c0,0.6,0.1,0.7,0.5,0.8l0.5,0.1C72.6,164.6,74.7,165.1,74.9,165.1L74.9,165.1z"/>
			<path class="st0" d="M59.9,147.5l15,3.8c0.2,0,0.5,0,0.8-0.1l2.8-1.2c0.5,0.1,0.8,0.3,0.8,0.6l-2.8,1.3c-0.3,0.2-0.5,0.5-0.5,0.9
				l0.1,11.6c0,0.2-0.1,0.4-0.3,0.4c-0.2,0-0.4,0-0.6,0c-0.2,0-0.3-0.1-0.3-0.4l-0.1-11.8c0-0.2-0.2-0.4-0.4-0.5l-15.4-3.8
				C59.1,148,59.5,147.6,59.9,147.5L59.9,147.5z"/>
			<path class="st8" d="M63.8,147.9c1.4,0,2.6-0.6,2.6-1.4s-1.2-1.4-2.6-1.4c-1.4,0-2.6,0.6-2.6,1.4S62.4,147.9,63.8,147.9z"/>
			<path class="st8" d="M67.1,152.7c0.1-0.1,0.3-0.1,0.4-0.2c2-0.6,4.1,1,4.8,3.4c0.7,2.5-0.3,4.9-2.3,5.5c0,0-0.1,0-0.1,0"/>
			<path class="st11" d="M66,152.9l1.5-0.4"/>
			<path class="st11" d="M68.5,161.8l1.5-0.4"/>
			<path class="st6" d="M211.8,178.5c0,0-5.9,2.1-5.9,5.5c0,6.1,7,6.1,7,6.1h15.8c5-2.3,4.1-9.1,3.5-9.5c-0.5-0.5-19.8-5.9-20.2-5.6
				C211.8,175.1,211.8,178.5,211.8,178.5L211.8,178.5z"/>
			<path class="st7" d="M212.9,190.7c-0.2,0-3.7,0-5.8-2.2c-1.2-1.1-1.7-2.7-1.7-4.5c0-3.2,4.5-5.3,5.9-5.9c0-3.2,0.2-3.3,0.4-3.5
				c0.3-0.2,0.6-0.5,10.7,2.3c6.2,1.7,9.7,2.8,10.3,3.2v0c0.6,0.5,0.8,2.5,0.6,4.1c-0.2,1.8-1,4.9-4.3,6.4l-0.1,0.1L212.9,190.7
				L212.9,190.7z M212.4,175.7c0,0.6-0.1,1.8-0.1,2.8v0.4l-0.4,0.1c-1.5,0.6-5.5,2.5-5.5,4.9c0,1.5,0.5,2.7,1.4,3.6
				c1.8,1.8,4.9,1.8,5,1.8h15.6c1.5-0.7,2.6-2,3.1-3.8c0.6-2.1,0.3-4.2,0.1-4.6C230.2,180.3,215.3,176.2,212.4,175.7L212.4,175.7z"
				/>
			<path class="st8" d="M213.8,180.3l-3-0.9c0,0,0,0,0,0l0,0.1c0,0,0,0,0,0l3,0.9C213.8,180.4,213.8,180.4,213.8,180.3L213.8,180.3
				C213.8,180.3,213.8,180.3,213.8,180.3z"/>
			<path class="st9" d="M214.3,181.1l-0.6-0.1l-3.6-1l0.4-1.3l0.6,0.1l3.6,1l-0.2,0.7L214.3,181.1z"/>
			<path class="st8" d="M211.2,181.7l-3-0.9c0,0,0,0,0,0l0,0.1c0,0,0,0,0,0l3,0.9C211.2,181.8,211.2,181.8,211.2,181.7L211.2,181.7
				C211.3,181.7,211.3,181.7,211.2,181.7z"/>
			<path class="st9" d="M211.3,182.5l-0.3-0.1l-3.6-1l0.4-1.3l0.6,0.2l3.6,1l-0.2,0.9L211.3,182.5z"/>
			<path class="st12" d="M68.5,161.8c2-0.6,3-3,2.3-5.5c-0.7-2.5-2.9-4-4.8-3.4c-2,0.6-3,3-2.3,5.5
				C64.4,160.9,66.5,162.4,68.5,161.8z"/>
			<path class="st0" d="M67.7,162.6c-2,0-3.9-1.6-4.6-4c-0.4-1.3-0.3-2.7,0.2-3.8c0.5-1.2,1.4-2,2.6-2.4c2.3-0.7,4.8,1.1,5.6,3.8
				c0.8,2.8-0.4,5.6-2.7,6.2C68.4,162.5,68,162.6,67.7,162.6L67.7,162.6z M66.8,153.4c-0.2,0-0.4,0-0.7,0.1
				c-0.8,0.2-1.4,0.8-1.8,1.7c-0.4,0.9-0.4,2-0.1,3c0.6,2.1,2.4,3.5,4.1,3c1.6-0.5,2.5-2.6,1.9-4.7
				C69.7,154.7,68.3,153.4,66.8,153.4L66.8,153.4z"/>
			<path class="st7" d="M71.9,149.4c-1,0-1.9-0.1-2.7-0.3c-1.8-0.4-3.2-1.4-4.1-3c-1.2-2.1-1.4-5.1-0.8-9c0.4-2.8,1.2-5.1,1.3-5.3
				l0.6,0.2l0.2-0.6l0.4,0.8c-0.1,0.4-3,8.9-0.6,13.3c0.7,1.3,1.8,2.1,3.3,2.4c7.1,1.7,19.5-4.4,30.1-14.8c7.4-7.3,13-9.2,14.6-9.6
				l0.2,0.5l-0.1-0.5l0.7,0.5c0,0,0.1,0.6-0.5,0.7c-1.1,0.3-6.7,2.1-14.1,9.3C90.7,143.4,79.5,149.4,71.9,149.4L71.9,149.4z"/>
		</g>
	</g>
</g>
</svg>
