<svg width="24" height="24" viewBox="0 0 24 24" fill="none" xmlns="http://www.w3.org/2000/svg" class="speech-bubble-color">
<path d="M3.99303 17.6635C4.05361 17.4634 3.92084 17.1853 3.79413 16.9848C3.75486 16.9249 3.71205 16.8669 3.66591 16.8112C2.5792 15.3201 1.99998 13.5733 2.00005 11.7872C1.98188 6.66036 6.68062 2.5 12.4909 2.5C17.5582 2.5 21.7885 5.67611 22.7764 9.89219C22.9246 10.5173 22.9996 11.1547 23 11.794C23 16.9281 18.4825 21.1538 12.6722 21.1538C11.7479 21.1538 10.5015 20.9437 9.82152 20.7715C9.14155 20.5993 8.46258 20.371 8.28742 20.3098C8.10809 20.2475 7.91766 20.2154 7.72557 20.2152C7.5161 20.2145 7.30865 20.2523 7.11576 20.3262L3.69115 21.4443C3.61632 21.4735 3.537 21.4923 3.45591 21.5C3.39178 21.4998 3.32832 21.4881 3.26921 21.4656C3.21009 21.4431 3.1565 21.4102 3.11152 21.3689C3.06655 21.3275 3.03109 21.2785 3.00719 21.2246C2.9833 21.1708 2.97144 21.1132 2.97231 21.0551C2.97652 21.0042 2.98667 20.9539 3.0026 20.9049L3.99303 17.6635Z" stroke="white" stroke-miterlimit="10" stroke-linecap="round"/>
<path d="M8 13.5C8.55228 13.5 9 13.0523 9 12.5C9 11.9477 8.55228 11.5 8 11.5C7.44772 11.5 7 11.9477 7 12.5C7 13.0523 7.44772 13.5 8 13.5Z" fill="white"/>
<path d="M12.5 13.5C13.0523 13.5 13.5 13.0523 13.5 12.5C13.5 11.9477 13.0523 11.5 12.5 11.5C11.9477 11.5 11.5 11.9477 11.5 12.5C11.5 13.0523 11.9477 13.5 12.5 13.5Z" fill="white"/>
<path d="M17 13.5C17.5523 13.5 18 13.0523 18 12.5C18 11.9477 17.5523 11.5 17 11.5C16.4477 11.5 16 11.9477 16 12.5C16 13.0523 16.4477 13.5 17 13.5Z" fill="white"/>
</svg>
